<?xml version="1.0" ?><svg enable-background="new 0 0 97.8 97.8" height="100%" id="svg2" version="1.1" viewBox="0 0 97.8 97.8" width="100%" xml:space="preserve" xmlns="http://www.w3.org/2000/svg" xmlns:cc="http://creativecommons.org/ns#" xmlns:dc="http://purl.org/dc/elements/1.1/" xmlns:inkscape="http://www.inkscape.org/namespaces/inkscape" xmlns:rdf="http://www.w3.org/1999/02/22-rdf-syntax-ns#" xmlns:sodipodi="http://sodipodi.sourceforge.net/DTD/sodipodi-0.dtd" xmlns:svg="http://www.w3.org/2000/svg"><defs id="defs12"/><path d="m 49.96875,8 c -0.336771,0 -0.669134,0.1700973 -0.875,0.4375 L 28.6875,35 c -0.299836,0.386 -0.294255,0.923144 0,1.3125 0.293136,0.388233 0.797989,0.522764 1.25,0.34375 l 13.53125,-5.34375 0,31.3125 c 0,0.598579 0.465039,1.09375 1.0625,1.09375 l 10.84375,0 c 0.599698,0 1.09375,-0.495171 1.09375,-1.09375 l 0,-31.3125 L 70,36.65625 c 0.45313,0.180133 0.956864,0.04561 1.25,-0.34375 0.146563,-0.193559 0.21875,-0.426888 0.21875,-0.65625 0,-0.233838 -0.06995,-0.46269 -0.21875,-0.65625 L 50.8125,8.4375 C 50.607752,8.1712161 50.305521,8 49.96875,8 z m 0,61.5625 c -5.06163,0 -9.1875,4.0935 -9.1875,9.15625 0,5.06275 4.12587,9.1875 9.1875,9.1875 5.061631,0 9.15625,-4.12475 9.15625,-9.1875 0,-5.061631 -4.094619,-9.15625 -9.15625,-9.15625 z" id="path3"/></svg>