<?xml version="1.0" standalone="no"?><!-- Generator: Gravit.io --><svg xmlns="http://www.w3.org/2000/svg" xmlns:xlink="http://www.w3.org/1999/xlink" style="isolation:isolate" width="800" height="65"><rect x="-5.684341886080802e-14" y="0" width="800" height="10" transform="matrix(1,0,0,1,0,0)" fill="rgb(230,0,0)" stroke-width="1" stroke="rgba(0,0,0,0)" stroke-linejoin="miter" stroke-linecap="square"/><rect x="-1.1368683772161603e-13" y="20" width="800.0000000000001" height="20" transform="matrix(1,0,0,1,0,0)" fill="rgb(74,134,232)" stroke-width="1" stroke="rgba(0,0,0,0)" stroke-linejoin="miter" stroke-linecap="square"/><rect x="-5.684341886080802e-14" y="45" width="800" height="20" transform="matrix(1,0,0,1,0,0)" fill="rgb(74,134,232)" stroke-width="1" stroke="rgba(0,0,0,0)" stroke-linejoin="miter" stroke-linecap="square"/><rect x="97.99999999999994" y="18.000000000000004" width="15" height="23.999999999999996" transform="matrix(1,0,0,1,0,0)" fill="rgb(255,255,255)" stroke-width="1" stroke="rgba(0,0,0,0)" stroke-linejoin="miter" stroke-linecap="square"/><rect x="489.99999999999994" y="18.000000000000004" width="15" height="23.999999999999996" transform="matrix(1,0,0,1,0,0)" fill="rgb(255,255,255)" stroke-width="1" stroke="rgba(0,0,0,0)" stroke-linejoin="miter" stroke-linecap="square"/><rect x="573" y="18.000000000000004" width="15" height="23.999999999999996" transform="matrix(1,0,0,1,0,0)" fill="rgb(255,255,255)" stroke-width="1" stroke="rgba(0,0,0,0)" stroke-linejoin="miter" stroke-linecap="square"/><rect x="236.99999999999994" y="18.000000000000004" width="15" height="23.999999999999996" transform="matrix(1,0,0,1,0,0)" fill="rgb(255,255,255)" stroke-width="1" stroke="rgba(0,0,0,0)" stroke-linejoin="miter" stroke-linecap="square"/><rect x="164.99999999999994" y="42.99999999999999" width="15" height="24.000000000000007" transform="matrix(1,0,0,1,0,0)" fill="rgb(255,255,255)" stroke-width="1" stroke="rgba(0,0,0,0)" stroke-linejoin="miter" stroke-linecap="square"/><rect x="229.49999999999994" y="42.99999999999999" width="15" height="24.000000000000007" transform="matrix(1,0,0,1,0,0)" fill="rgb(255,255,255)" stroke-width="1" stroke="rgba(0,0,0,0)" stroke-linejoin="miter" stroke-linecap="square"/><rect x="385.99999999999994" y="42.99999999999999" width="15" height="24.000000000000007" transform="matrix(1,0,0,1,0,0)" fill="rgb(255,255,255)" stroke-width="1" stroke="rgba(0,0,0,0)" stroke-linejoin="miter" stroke-linecap="square"/><rect x="459.9999999999999" y="42.99999999999999" width="340.0000000000002" height="24.000000000000007" transform="matrix(1,0,0,1,0,0)" fill="rgb(255,255,255)" stroke-width="1" stroke="rgba(0,0,0,0)" stroke-linejoin="miter" stroke-linecap="square"/></svg>