<?xml version="1.0" standalone="no"?><!-- Generator: Gravit.io --><svg xmlns="http://www.w3.org/2000/svg" xmlns:xlink="http://www.w3.org/1999/xlink" style="isolation:isolate" width="790" height="60"><rect x="0" y="0" width="700" height="60" transform="matrix(1,0,0,1,0,0)" fill="rgb(107,107,107)" stroke-width="1" stroke="rgba(0,0,0,0)" stroke-linejoin="miter" stroke-linecap="square"/><circle vector-effect="non-scaling-stroke" cx="0" cy="0" r="1" fill="rgb(239,50,33)" transform="matrix(30,0,0,30,751,30)" stroke-width="1" stroke="rgba(0,0,0,0)"/><path d=" M 741.2278293918919 37.376953125 L 739.5175253378378 37.376953125 L 739.5175253378378 27.201171875 Q 739.5175253378378 25.931640625 739.6019847972973 24.798828125 Q 739.3802787162163 25.00390625 739.105785472973 25.228515625 Q 738.8312922297297 25.453125 736.5931165540541 27.1328125 L 735.6640625 26.01953125 L 739.7497888513514 23.099609375 L 741.2278293918919 23.099609375 L 741.2278293918919 37.376953125 Z  M 747.6467483108108 36.341796875 Q 747.6467483108108 35.6875 747.96875 35.3505859375 Q 748.2907516891892 35.013671875 748.8925253378378 35.013671875 Q 749.504856418919 35.013671875 749.847972972973 35.3505859375 Q 750.1910895270271 35.6875 750.1910895270271 36.341796875 Q 750.1910895270271 36.9765625 749.8426942567568 37.318359375 Q 749.4942989864865 37.66015625 748.8925253378378 37.66015625 Q 748.3540962837837 37.66015625 748.0004222972973 37.3525390625 Q 747.6467483108108 37.044921875 747.6467483108108 36.341796875 Z  M 753.0310388513514 31.2734375 Q 753.0310388513514 27.064453125 754.7994087837837 24.9794921875 Q 756.5677787162163 22.89453125 760.0306165540541 22.89453125 Q 761.223606418919 22.89453125 761.9098395270271 23.080078125 L 761.9098395270271 24.4765625 Q 761.0969172297297 24.232421875 760.051731418919 24.232421875 Q 757.5707347972973 24.232421875 756.2616131756756 25.6630859375 Q 754.9524915540541 27.09375 754.8258023648649 30.16015625 L 754.9524915540541 30.16015625 Q 756.1138091216217 28.48046875 758.6264780405405 28.48046875 Q 760.7062922297297 28.48046875 761.9045608108108 29.642578125 Q 763.1028293918919 30.8046875 763.1028293918919 32.796875 Q 763.1028293918919 35.0234375 761.7884290540541 36.2978515625 Q 760.4740287162163 37.572265625 758.2358530405405 37.572265625 Q 755.8393158783783 37.572265625 754.4351773648649 35.9072265625 Q 753.0310388513514 34.2421875 753.0310388513514 31.2734375 Z  M 758.2147381756756 36.1953125 Q 759.713893581081 36.1953125 760.5426520270271 35.3212890625 Q 761.371410472973 34.447265625 761.371410472973 32.796875 Q 761.371410472973 31.380859375 760.6007179054054 30.5703125 Q 759.8300253378378 29.759765625 758.2991976351351 29.759765625 Q 757.3490287162163 29.759765625 756.5572212837837 30.12109375 Q 755.7654138513514 30.482421875 755.2956081081081 31.1171875 Q 754.8258023648649 31.751953125 754.8258023648649 32.435546875 Q 754.8258023648649 33.44140625 755.2480996621622 34.310546875 Q 755.6703969594595 35.1796875 756.4463682432432 35.6875 Q 757.2223395270271 36.1953125 758.2147381756756 36.1953125 Z " fill-rule="evenodd" fill="rgb(23,23,23)" stroke-width="1" stroke="rgba(0,0,0,0)" stroke-linejoin="miter" stroke-linecap="square"/><rect x="30.000000000000057" y="9.999999999999996" width="499.99999999999994" height="40" transform="matrix(1,0,0,1,0,0)" fill="rgb(255,255,255)" stroke-width="1" stroke="rgba(0,0,0,0)" stroke-linejoin="miter" stroke-linecap="square"/><path d=" M 57.16092956852792 36.72916666666667 L 57.16092956852792 30.015151515151516 Q 57.16092956852792 28.74621212121212 56.68920526649746 28.12121212121212 Q 56.217480964467 27.49621212121212 55.21216687817259 27.49621212121212 Q 53.8743258248731 27.49621212121212 53.25953759517766 28.386363636363637 Q 52.644749365482234 29.276515151515152 52.644749365482234 31.303030303030305 L 52.644749365482234 36.72916666666667 L 51.361040609137056 36.72916666666667 L 51.361040609137056 21.99431818181818 L 52.644749365482234 21.99431818181818 L 52.644749365482234 26.454545454545453 Q 52.644749365482234 27.259469696969695 52.58288388324873 27.789772727272727 L 52.66021573604061 27.789772727272727 Q 53.039141814720814 27.041666666666668 53.73899508248731 26.610795454545453 Q 54.43884835025381 26.179924242424242 55.335897842639596 26.179924242424242 Q 56.89026808375635 26.179924242424242 57.66745320431472 27.084280303030305 Q 58.4446383248731 27.988636363636363 58.4446383248731 29.958333333333336 L 58.4446383248731 36.72916666666667 L 57.16092956852792 36.72916666666667 Z  M 63.81920209390863 35.621212121212125 Q 64.15946224619289 35.621212121212125 64.4765228426396 35.55965909090909 Q 64.79358343908629 35.49810606060606 64.9791798857868 35.43181818181819 L 64.9791798857868 36.6344696969697 Q 64.77038388324873 36.75757575757576 64.36439165609137 36.83806818181819 Q 63.95839942893401 36.91856060606061 63.63360564720812 36.91856060606061 Q 61.174452728426395 36.91856060606061 61.174452728426395 33.746212121212125 L 61.174452728426395 27.571969696969695 L 59.960342639593904 27.571969696969695 L 59.960342639593904 26.814393939393938 L 61.174452728426395 26.16098484848485 L 61.71577569796954 23.945075757575758 L 62.45816148477157 23.945075757575758 L 62.45816148477157 26.35037878787879 L 64.91731440355329 26.35037878787879 L 64.91731440355329 27.571969696969695 L 62.45816148477157 27.571969696969695 L 62.45816148477157 33.67992424242424 Q 62.45816148477157 34.61742424242424 62.8216211928934 35.11931818181819 Q 63.185080901015226 35.621212121212125 63.81920209390863 35.621212121212125 Z  M 69.41029505076142 35.621212121212125 Q 69.75055520304568 35.621212121212125 70.06761579949239 35.55965909090909 Q 70.38467639593908 35.49810606060606 70.57027284263958 35.43181818181819 L 70.57027284263958 36.6344696969697 Q 70.36147684010152 36.75757575757576 69.95548461294416 36.83806818181819 Q 69.5494923857868 36.91856060606061 69.2246986040609 36.91856060606061 Q 66.76554568527919 36.91856060606061 66.76554568527919 33.746212121212125 L 66.76554568527919 27.571969696969695 L 65.5514355964467 27.571969696969695 L 65.5514355964467 26.814393939393938 L 66.76554568527919 26.16098484848485 L 67.30686865482232 23.945075757575758 L 68.04925444162436 23.945075757575758 L 68.04925444162436 26.35037878787879 L 70.5084073604061 26.35037878787879 L 70.5084073604061 27.571969696969695 L 68.04925444162436 27.571969696969695 L 68.04925444162436 33.67992424242424 Q 68.04925444162436 34.61742424242424 68.4127141497462 35.11931818181819 Q 68.77617385786802 35.621212121212125 69.41029505076142 35.621212121212125 Z  M 76.20776491116752 36.91856060606061 Q 75.38031408629442 36.91856060606061 74.69592718908629 36.54450757575758 Q 74.01154029187816 36.17045454545455 73.5475491751269 35.39393939393939 L 73.45475095177665 35.39393939393939 Q 73.5475491751269 36.303030303030305 73.5475491751269 37.11742424242424 L 73.5475491751269 41.38825757575758 L 72.26384041878173 41.38825757575758 L 72.26384041878173 26.35037878787879 L 73.30782043147208 26.35037878787879 L 73.4856836928934 27.770833333333336 L 73.5475491751269 27.770833333333336 Q 74.04247303299492 26.918560606060606 74.69979378172589 26.539772727272727 Q 75.35711453045684 26.16098484848485 76.20776491116752 26.16098484848485 Q 77.89359930203045 26.16098484848485 78.80998175761421 27.571969696969695 Q 79.72636421319797 28.982954545454547 79.72636421319797 31.53030303030303 Q 79.72636421319797 34.08712121212121 78.79451538705584 35.50284090909091 Q 77.86266656091371 36.91856060606061 76.20776491116752 36.91856060606061 Z  M 76.022168464467 27.49621212121212 Q 74.72299333756345 27.49621212121212 74.14300444162436 28.376893939393938 Q 73.56301554568527 29.257575757575758 73.5475491751269 31.179924242424242 L 73.5475491751269 31.53030303030303 Q 73.5475491751269 33.71780303030303 74.14300444162436 34.660037878787875 Q 74.73845970812182 35.60227272727273 76.05310120558376 35.60227272727273 Q 77.15121351522842 35.60227272727273 77.77373493020303 34.51325757575758 Q 78.39625634517766 33.42424242424242 78.39625634517766 31.511363636363637 Q 78.39625634517766 29.570075757575758 77.77373493020303 28.533143939393938 Q 77.15121351522842 27.49621212121212 76.022168464467 27.49621212121212 Z  M 87.43634993654823 33.89772727272727 Q 87.43634993654823 35.34659090909091 86.55476681472081 36.13257575757576 Q 85.67318369289339 36.91856060606061 84.08014752538071 36.91856060606061 Q 82.39431313451776 36.91856060606061 81.45086453045684 36.265151515151516 L 81.45086453045684 34.80681818181819 Q 82.06178616751268 35.18560606060606 82.76163943527919 35.40340909090909 Q 83.46149270304568 35.621212121212125 84.11108026649745 35.621212121212125 Q 85.11639435279187 35.621212121212125 85.65771732233502 35.2282196969697 Q 86.19904029187816 34.83522727272727 86.19904029187816 34.03030303030303 Q 86.19904029187816 33.42424242424242 85.76984850888324 32.99337121212121 Q 85.34065672588832 32.5625 84.09561389593908 31.97537878787879 Q 82.91243654822335 31.435606060606062 82.41364609771574 31.033143939393938 Q 81.91485564720811 30.63068181818182 81.67126031091371 30.11931818181818 Q 81.42766497461929 29.607954545454547 81.42766497461929 28.897727272727273 Q 81.42766497461929 27.62878787878788 82.27058217005076 26.894886363636363 Q 83.11349936548223 26.16098484848485 84.5828045685279 26.16098484848485 Q 85.95157836294416 26.16098484848485 87.2584866751269 26.84280303030303 L 86.80222874365481 28.12121212121212 Q 85.52625317258884 27.477272727272727 84.49000634517766 27.477272727272727 Q 83.5774904822335 27.477272727272727 83.11349936548223 27.827651515151516 Q 82.64950824873097 28.178030303030305 82.64950824873097 28.79356060606061 Q 82.64950824873097 29.210227272727273 82.82350491751268 29.50378787878788 Q 82.99750158629442 29.797348484848484 83.3841608502538 30.0625 Q 83.7708201142132 30.327651515151516 84.86893242385787 30.829545454545453 Q 86.37690355329948 31.501893939393938 86.90662674492386 32.183712121212125 Q 87.43634993654823 32.865530303030305 87.43634993654823 33.89772727272727 Z  M 89.33871351522842 35.72537878787879 Q 89.33871351522842 35.09090909090909 89.57457566624365 34.76420454545455 Q 89.81043781725887 34.4375 90.25122937817258 34.4375 Q 90.69975412436548 34.4375 90.95108264593908 34.76420454545455 Q 91.20241116751268 35.09090909090909 91.20241116751268 35.72537878787879 Q 91.20241116751268 36.34090909090909 90.94721605329948 36.672348484848484 Q 90.69202093908629 37.003787878787875 90.25122937817258 37.003787878787875 Q 89.856836928934 37.003787878787875 89.59777522208121 36.70549242424242 Q 89.33871351522842 36.40719696969697 89.33871351522842 35.72537878787879 Z  M 89.33871351522842 27.363636363636363 Q 89.33871351522842 26.085227272727273 90.25122937817258 26.085227272727273 Q 91.20241116751268 26.085227272727273 91.20241116751268 27.363636363636363 Q 91.20241116751268 27.979166666666668 90.94721605329948 28.310606060606062 Q 90.69202093908629 28.642045454545453 90.25122937817258 28.642045454545453 Q 89.856836928934 28.642045454545453 89.59777522208121 28.34375 Q 89.33871351522842 28.045454545454547 89.33871351522842 27.363636363636363 Z  M 98.03081376903552 22.884469696969695 L 93.81622779187816 36.72916666666667 L 92.532519035533 36.72916666666667 L 96.74710501269035 22.884469696969695 L 98.03081376903552 22.884469696969695 Z  M 103.84616909898477 22.884469696969695 L 99.6315831218274 36.72916666666667 L 98.34787436548223 36.72916666666667 L 102.56246034263958 22.884469696969695 L 103.84616909898477 22.884469696969695 Z  M 108.10715418781726 35.621212121212125 Q 108.44741434010152 35.621212121212125 108.76447493654823 35.55965909090909 Q 109.0815355329949 35.49810606060606 109.26713197969542 35.43181818181819 L 109.26713197969542 36.6344696969697 Q 109.05833597715736 36.75757575757576 108.65234375 36.83806818181819 Q 108.24635152284263 36.91856060606061 107.92155774111674 36.91856060606061 Q 105.46240482233502 36.91856060606061 105.46240482233502 33.746212121212125 L 105.46240482233502 27.571969696969695 L 104.24829473350253 27.571969696969695 L 104.24829473350253 26.814393939393938 L 105.46240482233502 26.16098484848485 L 106.00372779187816 23.945075757575758 L 106.7461135786802 23.945075757575758 L 106.7461135786802 26.35037878787879 L 109.20526649746192 26.35037878787879 L 109.20526649746192 27.571969696969695 L 106.7461135786802 27.571969696969695 L 106.7461135786802 33.67992424242424 Q 106.7461135786802 34.61742424242424 107.10957328680203 35.11931818181819 Q 107.47303299492384 35.621212121212125 108.10715418781726 35.621212121212125 Z  M 114.82729219543147 26.16098484848485 Q 115.39181472081218 26.16098484848485 115.84033946700507 26.27462121212121 L 115.66247620558374 27.732954545454547 Q 115.13661960659897 27.590909090909093 114.73449397208121 27.590909090909093 Q 113.70598032994923 27.590909090909093 112.97519432106597 28.613636363636363 Q 112.24440831218274 29.636363636363637 112.24440831218274 31.16098484848485 L 112.24440831218274 36.72916666666667 L 110.96069955583755 36.72916666666667 L 110.96069955583755 26.35037878787879 L 112.02014593908629 26.35037878787879 L 112.16707645939086 28.272727272727273 L 112.22894194162436 28.272727272727273 Q 112.70066624365481 27.259469696969695 113.36572017766497 26.710227272727273 Q 114.03077411167511 26.16098484848485 114.82729219543147 26.16098484848485 Z  M 118.63201935279187 26.35037878787879 L 118.63201935279187 33.08333333333333 Q 118.63201935279187 34.35227272727273 119.10374365482232 34.97727272727273 Q 119.57546795685278 35.60227272727273 120.5807820431472 35.60227272727273 Q 121.9108899111675 35.60227272727273 122.52567814086294 34.71212121212121 Q 123.14046637055837 33.8219696969697 123.14046637055837 31.804924242424242 L 123.14046637055837 26.35037878787879 L 124.42417512690355 26.35037878787879 L 124.42417512690355 36.72916666666667 L 123.36472874365481 36.72916666666667 L 123.17913229695431 35.33712121212121 L 123.10953362944161 35.33712121212121 Q 122.71514118020303 36.10416666666667 122.01528791243653 36.51136363636364 Q 121.31543464467003 36.91856060606061 120.41838515228426 36.91856060606061 Q 118.8717480964467 36.91856060606061 118.1022961611675 36.01893939393939 Q 117.33284422588831 35.11931818181819 117.33284422588831 33.140151515151516 L 117.33284422588831 26.35037878787879 L 118.63201935279187 26.35037878787879 Z  M 132.61361833756342 33.89772727272727 Q 132.61361833756342 35.34659090909091 131.73203521573603 36.13257575757576 Q 130.85045209390861 36.91856060606061 129.25741592639594 36.91856060606061 Q 127.57158153553299 36.91856060606061 126.62813293147207 36.265151515151516 L 126.62813293147207 34.80681818181819 Q 127.2390545685279 35.18560606060606 127.9389078362944 35.40340909090909 Q 128.6387611040609 35.621212121212125 129.28834866751268 35.621212121212125 Q 130.2936627538071 35.621212121212125 130.83498572335026 35.2282196969697 Q 131.3763086928934 34.83522727272727 131.3763086928934 34.03030303030303 Q 131.3763086928934 33.42424242424242 130.94711690989845 32.99337121212121 Q 130.51792512690355 32.5625 129.27288229695432 31.97537878787879 Q 128.08970494923858 31.435606060606062 127.59091449873095 31.033143939393938 Q 127.09212404822334 30.63068181818182 126.84852871192892 30.11931818181818 Q 126.6049333756345 29.607954545454547 126.6049333756345 28.897727272727273 Q 126.6049333756345 27.62878787878788 127.44785057106598 26.894886363636363 Q 128.29076776649745 26.16098484848485 129.76007296954313 26.16098484848485 Q 131.12884676395936 26.16098484848485 132.43575507614213 26.84280303030303 L 131.97949714467003 28.12121212121212 Q 130.70352157360406 27.477272727272727 129.6672747461929 27.477272727272727 Q 128.7547588832487 27.477272727272727 128.29076776649745 27.827651515151516 Q 127.82677664974618 28.178030303030305 127.82677664974618 28.79356060606061 Q 127.82677664974618 29.210227272727273 128.0007733185279 29.50378787878788 Q 128.17476998730962 29.797348484848484 128.56142925126903 30.0625 Q 128.94808851522842 30.327651515151516 130.0462008248731 30.829545454545453 Q 131.5541719543147 31.501893939393938 132.0838951459391 32.183712121212125 Q 132.61361833756342 32.865530303030305 132.61361833756342 33.89772727272727 Z  M 137.43912595177665 35.621212121212125 Q 137.7793861040609 35.621212121212125 138.0964467005076 35.55965909090909 Q 138.41350729695432 35.49810606060606 138.5991037436548 35.43181818181819 L 138.5991037436548 36.6344696969697 Q 138.39030774111674 36.75757575757576 137.98431551395936 36.83806818181819 Q 137.578323286802 36.91856060606061 137.25352950507613 36.91856060606061 Q 134.7943765862944 36.91856060606061 134.7943765862944 33.746212121212125 L 134.7943765862944 27.571969696969695 L 133.58026649746193 27.571969696969695 L 133.58026649746193 26.814393939393938 L 134.7943765862944 26.16098484848485 L 135.33569955583755 23.945075757575758 L 136.07808534263958 23.945075757575758 L 136.07808534263958 26.35037878787879 L 138.5372382614213 26.35037878787879 L 138.5372382614213 27.571969696969695 L 136.07808534263958 27.571969696969695 L 136.07808534263958 33.67992424242424 Q 136.07808534263958 34.61742424242424 136.44154505076142 35.11931818181819 Q 136.80500475888323 35.621212121212125 137.43912595177665 35.621212121212125 Z  M 139.58121827411168 32.25 L 139.58121827411168 30.810606060606062 L 143.37821224619287 30.810606060606062 L 143.37821224619287 32.25 L 139.58121827411168 32.25 Z  M 156.1921002538071 36.72916666666667 L 156.1921002538071 29.977272727272727 Q 156.1921002538071 28.736742424242422 155.75904187817258 28.116477272727273 Q 155.32598350253807 27.49621212121212 154.41346763959388 27.49621212121212 Q 153.21482392131978 27.49621212121212 152.64256821065987 28.339015151515152 Q 152.0703125 29.18181818181818 152.0703125 30.93371212121212 L 152.0703125 36.72916666666667 L 150.7866037436548 36.72916666666667 L 150.7866037436548 29.977272727272727 Q 150.7866037436548 28.736742424242422 150.3535453680203 28.116477272727273 Q 149.92048699238578 27.49621212121212 149.00023794416242 27.49621212121212 Q 147.79386104060913 27.49621212121212 147.233205107868 28.38162878787879 Q 146.6725491751269 29.267045454545453 146.6725491751269 31.28409090909091 L 146.6725491751269 36.72916666666667 L 145.3888404187817 36.72916666666667 L 145.3888404187817 26.35037878787879 L 146.43282043147207 26.35037878787879 L 146.64161643401013 27.770833333333336 L 146.70348191624365 27.770833333333336 Q 147.06694162436548 27.013257575757578 147.72812896573603 26.58712121212121 Q 148.38931630710658 26.16098484848485 149.2090339467005 26.16098484848485 Q 151.19646256345175 26.16098484848485 151.8073842005076 27.922348484848484 L 151.8692496827411 27.922348484848484 Q 152.2481757614213 27.107954545454547 152.96736199238578 26.634469696969695 Q 153.68654822335026 26.16098484848485 154.60679727157358 26.16098484848485 Q 156.04516973350252 26.16098484848485 156.7604893718274 27.06534090909091 Q 157.47580901015226 27.96969696969697 157.47580901015226 29.958333333333336 L 157.47580901015226 36.72916666666667 L 156.1921002538071 36.72916666666667 Z  M 163.70102315989845 36.91856060606061 Q 161.8218591370558 36.91856060606061 160.73534660532994 35.51704545454545 Q 159.64883407360406 34.115530303030305 159.64883407360406 31.625 Q 159.64883407360406 29.115530303030305 160.65801475253807 27.638257575757578 Q 161.66719543147207 26.16098484848485 163.3684961928934 26.16098484848485 Q 164.96153236040607 26.16098484848485 165.88951459390861 27.44412878787879 Q 166.81749682741116 28.727272727272727 166.81749682741116 30.829545454545453 L 166.81749682741116 31.823863636363637 L 160.97894194162436 31.823863636363637 Q 161.0176078680203 33.651515151515156 161.73292750634516 34.598484848484844 Q 162.44824714467003 35.54545454545455 163.74742227157358 35.54545454545455 Q 165.1161960659898 35.54545454545455 166.45403711928932 34.84469696969697 L 166.45403711928932 36.246212121212125 Q 165.77351681472078 36.60606060606061 165.16646177030455 36.76231060606061 Q 164.55940672588832 36.91856060606061 163.70102315989845 36.91856060606061 Z  M 163.353029822335 27.477272727272727 Q 162.3322493654822 27.477272727272727 161.72519432106597 28.291666666666668 Q 161.11813927664974 29.10606060606061 161.0098746827411 30.545454545454547 L 165.4409898477157 30.545454545454547 Q 165.4409898477157 29.05871212121212 164.89966687817258 28.267992424242422 Q 164.35834390862942 27.477272727272727 163.353029822335 27.477272727272727 Z  M 171.7435358502538 35.621212121212125 Q 172.08379600253807 35.621212121212125 172.40085659898477 35.55965909090909 Q 172.71791719543145 35.49810606060606 172.90351364213197 35.43181818181819 L 172.90351364213197 36.6344696969697 Q 172.69471763959388 36.75757575757576 172.28872541243652 36.83806818181819 Q 171.88273318527916 36.91856060606061 171.5579394035533 36.91856060606061 Q 169.09878648477155 36.91856060606061 169.09878648477155 33.746212121212125 L 169.09878648477155 27.571969696969695 L 167.88467639593907 27.571969696969695 L 167.88467639593907 26.814393939393938 L 169.09878648477155 26.16098484848485 L 169.6401094543147 23.945075757575758 L 170.38249524111671 23.945075757575758 L 170.38249524111671 26.35037878787879 L 172.84164815989845 26.35037878787879 L 172.84164815989845 27.571969696969695 L 170.38249524111671 27.571969696969695 L 170.38249524111671 33.67992424242424 Q 170.38249524111671 34.61742424242424 170.74595494923858 35.11931818181819 Q 171.1094146573604 35.621212121212125 171.7435358502538 35.621212121212125 Z  M 178.463673857868 26.16098484848485 Q 179.0281963832487 26.16098484848485 179.47672112944161 26.27462121212121 L 179.2988578680203 27.732954545454547 Q 178.77300126903552 27.590909090909093 178.37087563451774 27.590909090909093 Q 177.34236199238578 27.590909090909093 176.61157598350252 28.613636363636363 Q 175.8807899746193 29.636363636363637 175.8807899746193 31.16098484848485 L 175.8807899746193 36.72916666666667 L 174.5970812182741 36.72916666666667 L 174.5970812182741 26.35037878787879 L 175.65652760152284 26.35037878787879 L 175.8034581218274 28.272727272727273 L 175.8653236040609 28.272727272727273 Q 176.33704790609136 27.259469696969695 177.0021018401015 26.710227272727273 Q 177.66715577411168 26.16098484848485 178.463673857868 26.16098484848485 Z  M 182.3457328680203 36.72916666666667 L 181.0620241116751 36.72916666666667 L 181.0620241116751 26.35037878787879 L 182.3457328680203 26.35037878787879 L 182.3457328680203 36.72916666666667 Z  M 180.95375951776649 23.53787878787879 Q 180.95375951776649 22.998106060606062 181.17028870558374 22.74715909090909 Q 181.386817893401 22.49621212121212 181.71161167512687 22.49621212121212 Q 182.0209390862944 22.49621212121212 182.24520145939084 22.751893939393938 Q 182.4694638324873 23.007575757575758 182.4694638324873 23.53787878787879 Q 182.4694638324873 24.06818181818182 182.24520145939084 24.328598484848484 Q 182.0209390862944 24.589015151515152 181.71161167512687 24.589015151515152 Q 181.386817893401 24.589015151515152 181.17028870558374 24.328598484848484 Q 180.95375951776649 24.06818181818182 180.95375951776649 23.53787878787879 Z  M 188.45494923857865 36.91856060606061 Q 186.61445114213197 36.91856060606061 185.60527046319794 35.53125 Q 184.59608978426394 34.14393939393939 184.59608978426394 31.60606060606061 Q 184.59608978426394 29.001893939393938 185.62073683375633 27.581439393939394 Q 186.6453838832487 26.16098484848485 188.5400142766497 26.16098484848485 Q 189.15093591370555 26.16098484848485 189.7618575507614 26.321969696969695 Q 190.37277918781723 26.482954545454547 190.72077252538068 26.700757575757578 L 190.3263800761421 28.03598484848485 Q 189.90105488578678 27.827651515151516 189.39839784263958 27.69034090909091 Q 188.89574079949236 27.553030303030305 188.50908153553297 27.553030303030305 Q 185.92619765228423 27.553030303030305 185.92619765228423 31.58712121212121 Q 185.92619765228423 33.5 186.55645225253807 34.52272727272727 Q 187.18670685279187 35.54545454545455 188.4240164974619 35.54545454545455 Q 189.48346288071065 35.54545454545455 190.59704156091368 34.98674242424242 L 190.59704156091368 36.378787878787875 Q 189.74639118020303 36.91856060606061 188.45494923857865 36.91856060606061 Z  M 192.422073286802 35.72537878787879 Q 192.422073286802 35.09090909090909 192.65793543781723 34.76420454545455 Q 192.89379758883246 34.4375 193.33458914974617 34.4375 Q 193.78311389593907 34.4375 194.03444241751268 34.76420454545455 Q 194.28577093908626 35.09090909090909 194.28577093908626 35.72537878787879 Q 194.28577093908626 36.34090909090909 194.03057582487307 36.672348484848484 Q 193.77538071065987 37.003787878787875 193.33458914974617 37.003787878787875 Q 192.94019670050758 37.003787878787875 192.6811349936548 36.70549242424242 Q 192.422073286802 36.40719696969697 192.422073286802 35.72537878787879 Z  M 198.10596446700507 36.72916666666667 L 196.82225571065987 36.72916666666667 L 196.82225571065987 21.99431818181818 L 198.10596446700507 21.99431818181818 L 198.10596446700507 36.72916666666667 Z  M 202.11175444162436 36.72916666666667 L 200.82804568527916 36.72916666666667 L 200.82804568527916 26.35037878787879 L 202.11175444162436 26.35037878787879 L 202.11175444162436 36.72916666666667 Z  M 200.71978109137055 23.53787878787879 Q 200.71978109137055 22.998106060606062 200.9363102791878 22.74715909090909 Q 201.15283946700507 22.49621212121212 201.47763324873094 22.49621212121212 Q 201.78696065989845 22.49621212121212 202.0112230329949 22.751893939393938 Q 202.23548540609136 23.007575757575758 202.23548540609136 23.53787878787879 Q 202.23548540609136 24.06818181818182 202.0112230329949 24.328598484848484 Q 201.78696065989845 24.589015151515152 201.47763324873094 24.589015151515152 Q 201.15283946700507 24.589015151515152 200.9363102791878 24.328598484848484 Q 200.71978109137055 24.06818181818182 200.71978109137055 23.53787878787879 Z  M 208.0353743654822 35.60227272727273 Q 209.3190831218274 35.60227272727273 209.90680520304565 34.7594696969697 Q 210.49452728426394 33.91666666666667 210.53319321065987 31.91856060606061 L 210.53319321065987 31.56818181818182 Q 210.53319321065987 29.390151515151516 209.93000475888323 28.43371212121212 Q 209.32681630710658 27.477272727272727 208.01990799492384 27.477272727272727 Q 206.89086294416242 27.477272727272727 206.29154108502536 28.552083333333336 Q 205.6922192258883 29.626893939393938 205.6922192258883 31.58712121212121 Q 205.6922192258883 33.547348484848484 206.28380789974617 34.57481060606061 Q 206.87539657360404 35.60227272727273 208.0353743654822 35.60227272727273 Z  M 207.84204473350252 36.91856060606061 Q 206.2026094543147 36.91856060606061 205.28236040609136 35.50757575757576 Q 204.362111357868 34.09659090909091 204.362111357868 31.56818181818182 Q 204.362111357868 29.020833333333336 205.29009359137055 27.590909090909093 Q 206.21807582487307 26.16098484848485 207.87297747461926 26.16098484848485 Q 209.61294416243652 26.16098484848485 210.54865958121826 27.770833333333336 L 210.61825824873094 27.770833333333336 L 210.80385469543145 26.35037878787879 L 211.81690196700507 26.35037878787879 L 211.81690196700507 41.38825757575758 L 210.53319321065987 41.38825757575758 L 210.53319321065987 36.9469696969697 Q 210.53319321065987 36 210.61825824873094 35.33712121212121 L 210.5177268401015 35.33712121212121 Q 209.6284105329949 36.91856060606061 207.84204473350252 36.91856060606061 Z  M 215.74536008883246 26.35037878787879 L 215.74536008883246 33.08333333333333 Q 215.74536008883246 34.35227272727273 216.2170843908629 34.97727272727273 Q 216.6888086928934 35.60227272727273 217.69412277918778 35.60227272727273 Q 219.0242306472081 35.60227272727273 219.63901887690352 34.71212121212121 Q 220.25380710659897 33.8219696969697 220.25380710659897 31.804924242424242 L 220.25380710659897 26.35037878787879 L 221.53751586294413 26.35037878787879 L 221.53751586294413 36.72916666666667 L 220.47806947969542 36.72916666666667 L 220.2924730329949 35.33712121212121 L 220.2228743654822 35.33712121212121 Q 219.82848191624362 36.10416666666667 219.12862864847713 36.51136363636364 Q 218.42877538071065 36.91856060606061 217.53172588832484 36.91856060606061 Q 215.9850888324873 36.91856060606061 215.2156368972081 36.01893939393939 Q 214.4461849619289 35.11931818181819 214.4461849619289 33.140151515151516 L 214.4461849619289 26.35037878787879 L 215.74536008883246 26.35037878787879 Z  M 224.07400063451774 35.72537878787879 Q 224.07400063451774 35.09090909090909 224.30986278553297 34.76420454545455 Q 224.5457249365482 34.4375 224.9865164974619 34.4375 Q 225.4350412436548 34.4375 225.6863697652284 34.76420454545455 Q 225.937698286802 35.09090909090909 225.937698286802 35.72537878787879 Q 225.937698286802 36.34090909090909 225.6825031725888 36.672348484848484 Q 225.42730805837562 37.003787878787875 224.9865164974619 37.003787878787875 Q 224.59212404822333 37.003787878787875 224.33306234137052 36.70549242424242 Q 224.07400063451774 36.40719696969697 224.07400063451774 35.72537878787879 Z  M 229.75789181472078 36.72916666666667 L 228.47418305837562 36.72916666666667 L 228.47418305837562 26.35037878787879 L 229.75789181472078 26.35037878787879 L 229.75789181472078 36.72916666666667 Z  M 228.36591846446697 23.53787878787879 Q 228.36591846446697 22.998106060606062 228.58244765228423 22.74715909090909 Q 228.7989768401015 22.49621212121212 229.1237706218274 22.49621212121212 Q 229.4330980329949 22.49621212121212 229.65736040609136 22.751893939393938 Q 229.88162277918778 23.007575757575758 229.88162277918778 23.53787878787879 Q 229.88162277918778 24.06818181818182 229.65736040609136 24.328598484848484 Q 229.4330980329949 24.589015151515152 229.1237706218274 24.589015151515152 Q 228.7989768401015 24.589015151515152 228.58244765228423 24.328598484848484 Q 228.36591846446697 24.06818181818182 228.36591846446697 23.53787878787879 Z  M 239.79556630710658 31.53030303030303 Q 239.79556630710658 34.06818181818182 238.75158629441623 35.49337121212121 Q 237.70760628172587 36.91856060606061 235.86710818527916 36.91856060606061 Q 234.73032994923855 36.91856060606061 233.84874682741113 36.265151515151516 Q 232.96716370558374 35.61174242424242 232.4877062182741 34.390151515151516 Q 232.00824873096445 33.16856060606061 232.00824873096445 31.53030303030303 Q 232.00824873096445 28.992424242424242 233.04449555837562 27.576704545454547 Q 234.08074238578678 26.16098484848485 235.9212404822335 26.16098484848485 Q 237.69987309644668 26.16098484848485 238.74771970177662 27.609848484848484 Q 239.79556630710658 29.05871212121212 239.79556630710658 31.53030303030303 Z  M 233.33835659898475 31.53030303030303 Q 233.33835659898475 33.51893939393939 233.98794416243652 34.56060606060606 Q 234.6375317258883 35.60227272727273 235.8980409263959 35.60227272727273 Q 237.15855012690352 35.60227272727273 237.8120042829949 34.56534090909091 Q 238.46545843908626 33.52840909090909 238.46545843908626 31.53030303030303 Q 238.46545843908626 29.551136363636363 237.8120042829949 28.523674242424242 Q 237.15855012690352 27.49621212121212 235.88257455583755 27.49621212121212 Q 234.6220653553299 27.49621212121212 233.98021097715733 28.509469696969695 Q 233.33835659898475 29.522727272727273 233.33835659898475 31.53030303030303 Z " fill-rule="evenodd" fill="rgb(23,23,23)" stroke-width="1" stroke="rgba(0,0,0,0)" stroke-linejoin="miter" stroke-linecap="square"/><path d=" M 578.1294221698113 23.68198529411765 L 579.4781839622641 23.68198529411765 L 575.5940448113207 37.11948529411765 L 574.355837264151 37.11948529411765 L 570.4938089622641 23.68198529411765 L 571.8204599056604 23.68198529411765 L 574.296875 32.376838235294116 Q 574.7243514150944 33.875 574.9749410377359 35.290441176470594 Q 575.2402712264151 33.80147058823529 575.6677476415094 32.32169117647059 L 578.1294221698113 23.68198529411765 Z  M 581.998820754717 37.11948529411765 L 580.7753537735849 37.11948529411765 L 580.7753537735849 27.045955882352942 L 581.998820754717 27.045955882352942 L 581.998820754717 37.11948529411765 Z  M 580.6721698113207 24.316176470588236 Q 580.6721698113207 23.792279411764707 580.878537735849 23.548713235294116 Q 581.0849056603773 23.30514705882353 581.3944575471698 23.30514705882353 Q 581.6892688679245 23.30514705882353 581.9030070754717 23.553308823529413 Q 582.1167452830189 23.801470588235293 582.1167452830189 24.316176470588236 Q 582.1167452830189 24.830882352941178 581.9030070754717 25.083639705882355 Q 581.6892688679245 25.33639705882353 581.3944575471698 25.33639705882353 Q 581.0849056603773 25.33639705882353 580.878537735849 25.083639705882355 Q 580.6721698113207 24.830882352941178 580.6721698113207 24.316176470588236 Z  M 588.0056014150944 37.30330882352941 Q 586.2146226415094 37.30330882352941 585.1790978773585 35.943014705882355 Q 584.1435731132076 34.58272058823529 584.1435731132076 32.16544117647059 Q 584.1435731132076 29.729779411764707 585.1053950471698 28.295955882352942 Q 586.0672169811321 26.862132352941178 587.688679245283 26.862132352941178 Q 589.2069575471698 26.862132352941178 590.091391509434 28.107536764705884 Q 590.9758254716982 29.352941176470587 590.9758254716982 31.393382352941178 L 590.9758254716982 32.35845588235294 L 585.4112617924528 32.35845588235294 Q 585.4481132075472 34.13235294117647 586.1298643867924 35.05147058823529 Q 586.8116155660377 35.970588235294116 588.0498231132076 35.970588235294116 Q 589.3543632075472 35.970588235294116 590.6294221698113 35.290441176470594 L 590.6294221698113 36.65073529411765 Q 589.980837264151 37 589.4022700471698 37.15165441176471 Q 588.8237028301887 37.30330882352941 588.0056014150944 37.30330882352941 Z  M 587.6739386792453 28.139705882352942 Q 586.7010613207547 28.139705882352942 586.1224941037735 28.93014705882353 Q 585.5439268867924 29.720588235294116 585.4407429245283 31.11764705882353 L 589.6639150943396 31.11764705882353 Q 589.6639150943396 29.674632352941178 589.1479952830189 28.907169117647058 Q 588.6320754716982 28.139705882352942 587.6739386792453 28.139705882352942 Z  M 599.6580188679245 37.11948529411765 L 598.1765919811321 31.209558823529413 Q 598.0365566037735 30.667279411764707 597.6533018867924 28.746323529411764 L 597.5943396226415 28.746323529411764 Q 597.2995283018868 30.354779411764707 597.0784198113207 31.227941176470587 L 595.5527712264151 37.11948529411765 L 594.1376768867924 37.11948529411765 L 591.933962264151 27.045955882352942 L 593.216391509434 27.045955882352942 Q 593.997641509434 30.841911764705884 594.4066922169811 32.82720588235294 Q 594.8157429245283 34.8125 594.8747051886793 35.501838235294116 L 594.9336674528302 35.501838235294116 Q 595.0147405660377 34.977941176470594 595.1953125 34.146139705882355 Q 595.3758844339623 33.314338235294116 595.5085495283018 32.82720588235294 L 596.9899764150944 27.045955882352942 L 598.3166273584906 27.045955882352942 L 599.7612028301887 32.82720588235294 Q 600.1739386792453 34.408088235294116 600.3213443396227 35.48345588235294 L 600.3803066037735 35.48345588235294 Q 600.409787735849 35.15257352941177 600.5387676886793 34.46323529411765 Q 600.6677476415094 33.77389705882353 602.0754716981132 27.045955882352942 L 603.3431603773585 27.045955882352942 L 601.1099646226415 37.11948529411765 L 599.6580188679245 37.11948529411765 Z  M 615.6957547169811 32.07352941176471 Q 615.6957547169811 34.536764705882355 614.700766509434 35.920036764705884 Q 613.7057783018868 37.30330882352941 611.9516509433962 37.30330882352941 Q 610.8682193396227 37.30330882352941 610.0280070754717 36.669117647058826 Q 609.1877948113207 36.03492647058823 608.730837264151 34.849264705882355 Q 608.2738797169811 33.66360294117647 608.2738797169811 32.07352941176471 Q 608.2738797169811 29.610294117647058 609.2614976415094 28.236213235294116 Q 610.2491155660377 26.862132352941178 612.0032429245283 26.862132352941178 Q 613.6984080188679 26.862132352941178 614.6970813679245 28.268382352941178 Q 615.6957547169811 29.674632352941178 615.6957547169811 32.07352941176471 Z  M 609.5415683962265 32.07352941176471 Q 609.5415683962265 34.00367647058823 610.1606721698113 35.01470588235294 Q 610.7797759433962 36.02573529411765 611.9811320754717 36.02573529411765 Q 613.1824882075472 36.02573529411765 613.8052771226415 35.01930147058823 Q 614.4280660377359 34.012867647058826 614.4280660377359 32.07352941176471 Q 614.4280660377359 30.152573529411764 613.8052771226415 29.155330882352942 Q 613.1824882075472 28.158088235294116 611.966391509434 28.158088235294116 Q 610.7650353773585 28.158088235294116 610.1533018867924 29.141544117647058 Q 609.5415683962265 30.125 609.5415683962265 32.07352941176471 Z  M 623.3682193396227 37.11948529411765 L 623.3682193396227 30.602941176470587 Q 623.3682193396227 29.371323529411764 622.9186320754717 28.764705882352942 Q 622.4690448113207 28.158088235294116 621.5109080188679 28.158088235294116 Q 620.2432193396227 28.158088235294116 619.6535966981132 29.012867647058826 Q 619.0639740566038 29.86764705882353 619.0639740566038 31.834558823529413 L 619.0639740566038 37.11948529411765 L 617.8405070754717 37.11948529411765 L 617.8405070754717 27.045955882352942 L 618.8354952830189 27.045955882352942 L 619.0344929245283 28.424632352941178 L 619.0934551886793 28.424632352941178 Q 619.4693396226415 27.68014705882353 620.1474056603773 27.271139705882355 Q 620.8254716981132 26.862132352941178 621.6583136792453 26.862132352941178 Q 623.1176297169811 26.862132352941178 623.8546580188679 27.739889705882355 Q 624.5916863207548 28.61764705882353 624.5916863207548 30.547794117647058 L 624.5916863207548 37.11948529411765 L 623.3682193396227 37.11948529411765 Z  M 631.2102004716982 37.11948529411765 L 631.2102004716982 23.68198529411765 L 632.4631485849056 23.68198529411765 L 632.4631485849056 35.70404411764706 L 637.2169811320755 35.70404411764706 L 637.2169811320755 37.11948529411765 L 631.2102004716982 37.11948529411765 Z  M 640.0840212264151 37.11948529411765 L 638.8605542452831 37.11948529411765 L 638.8605542452831 27.045955882352942 L 640.0840212264151 27.045955882352942 L 640.0840212264151 37.11948529411765 Z  M 638.7573702830189 24.316176470588236 Q 638.7573702830189 23.792279411764707 638.9637382075472 23.548713235294116 Q 639.1701061320755 23.30514705882353 639.4796580188679 23.30514705882353 Q 639.7744693396227 23.30514705882353 639.9882075471698 23.553308823529413 Q 640.201945754717 23.801470588235293 640.201945754717 24.316176470588236 Q 640.201945754717 24.830882352941178 639.9882075471698 25.083639705882355 Q 639.7744693396227 25.33639705882353 639.4796580188679 25.33639705882353 Q 639.1701061320755 25.33639705882353 638.9637382075472 25.083639705882355 Q 638.7573702830189 24.830882352941178 638.7573702830189 24.316176470588236 Z  M 645.7296580188679 36.02573529411765 Q 646.953125 36.02573529411765 647.513266509434 35.20772058823529 Q 648.0734080188679 34.38970588235294 648.1102594339623 32.450367647058826 L 648.1102594339623 32.11029411764706 Q 648.1102594339623 29.996323529411764 647.5353773584906 29.068014705882355 Q 646.9604952830189 28.139705882352942 645.7149174528302 28.139705882352942 Q 644.6388561320755 28.139705882352942 644.0676591981132 29.182904411764707 Q 643.496462264151 30.22610294117647 643.496462264151 32.12867647058823 Q 643.496462264151 34.03125 644.0602889150944 35.028492647058826 Q 644.6241155660377 36.02573529411765 645.7296580188679 36.02573529411765 Z  M 645.5454009433962 37.30330882352941 Q 643.9829009433962 37.30330882352941 643.105837264151 35.93382352941177 Q 642.2287735849056 34.564338235294116 642.2287735849056 32.11029411764706 Q 642.2287735849056 29.637867647058826 643.1132075471698 28.25 Q 643.997641509434 26.862132352941178 645.5748820754717 26.862132352941178 Q 647.233195754717 26.862132352941178 648.125 28.424632352941178 L 648.1913325471698 28.424632352941178 L 648.3682193396227 27.045955882352942 L 649.3337264150944 27.045955882352942 L 649.3337264150944 41.64154411764706 L 648.1102594339623 41.64154411764706 L 648.1102594339623 37.330882352941174 Q 648.1102594339623 36.411764705882355 648.1913325471698 35.768382352941174 L 648.0955188679245 35.768382352941174 Q 647.2479363207548 37.30330882352941 645.5454009433962 37.30330882352941 Z  M 653.0778301886793 27.045955882352942 L 653.0778301886793 33.580882352941174 Q 653.0778301886793 34.8125 653.5274174528302 35.419117647058826 Q 653.9770047169811 36.02573529411765 654.935141509434 36.02573529411765 Q 656.2028301886793 36.02573529411765 656.7887676886793 35.161764705882355 Q 657.3747051886793 34.29779411764706 657.3747051886793 32.34007352941177 L 657.3747051886793 27.045955882352942 L 658.5981721698113 27.045955882352942 L 658.5981721698113 37.11948529411765 L 657.5884433962265 37.11948529411765 L 657.4115566037735 35.768382352941174 L 657.3452240566038 35.768382352941174 Q 656.9693396226415 36.512867647058826 656.302329009434 36.908088235294116 Q 655.6353183962265 37.30330882352941 654.7803655660377 37.30330882352941 Q 653.3063089622642 37.30330882352941 652.5729658018868 36.43014705882353 Q 651.8396226415094 35.55698529411765 651.8396226415094 33.63602941176471 L 651.8396226415094 27.045955882352942 L 653.0778301886793 27.045955882352942 Z  M 662.4159787735849 37.11948529411765 L 661.1925117924528 37.11948529411765 L 661.1925117924528 27.045955882352942 L 662.4159787735849 27.045955882352942 L 662.4159787735849 37.11948529411765 Z  M 661.0893278301887 24.316176470588236 Q 661.0893278301887 23.792279411764707 661.295695754717 23.548713235294116 Q 661.5020636792453 23.30514705882353 661.8116155660377 23.30514705882353 Q 662.1064268867924 23.30514705882353 662.3201650943396 23.553308823529413 Q 662.5339033018868 23.801470588235293 662.5339033018868 24.316176470588236 Q 662.5339033018868 24.830882352941178 662.3201650943396 25.083639705882355 Q 662.1064268867924 25.33639705882353 661.8116155660377 25.33639705882353 Q 661.5020636792453 25.33639705882353 661.295695754717 25.083639705882355 Q 661.0893278301887 24.830882352941178 661.0893278301887 24.316176470588236 Z  M 671.9826061320755 32.07352941176471 Q 671.9826061320755 34.536764705882355 670.9876179245283 35.920036764705884 Q 669.9926297169811 37.30330882352941 668.2385023584906 37.30330882352941 Q 667.155070754717 37.30330882352941 666.314858490566 36.669117647058826 Q 665.4746462264151 36.03492647058823 665.0176886792453 34.849264705882355 Q 664.5607311320755 33.66360294117647 664.5607311320755 32.07352941176471 Q 664.5607311320755 29.610294117647058 665.5483490566038 28.236213235294116 Q 666.5359669811321 26.862132352941178 668.2900943396227 26.862132352941178 Q 669.9852594339623 26.862132352941178 670.9839327830189 28.268382352941178 Q 671.9826061320755 29.674632352941178 671.9826061320755 32.07352941176471 Z  M 665.8284198113208 32.07352941176471 Q 665.8284198113208 34.00367647058823 666.4475235849056 35.01470588235294 Q 667.0666273584906 36.02573529411765 668.267983490566 36.02573529411765 Q 669.4693396226415 36.02573529411765 670.0921285377359 35.01930147058823 Q 670.7149174528302 34.012867647058826 670.7149174528302 32.07352941176471 Q 670.7149174528302 30.152573529411764 670.0921285377359 29.155330882352942 Q 669.4693396226415 28.158088235294116 668.2532429245283 28.158088235294116 Q 667.0518867924528 28.158088235294116 666.4401533018868 29.141544117647058 Q 665.8284198113208 30.125 665.8284198113208 32.07352941176471 Z " fill-rule="evenodd" fill="rgb(255,255,255)" stroke-width="1" stroke="rgba(0,0,0,0)" stroke-linejoin="miter" stroke-linecap="square"/></svg>