<svg version="1.1" xmlns="http://www.w3.org/2000/svg" width="578" height="36">
	<path style="fill:#fafafa; stroke:none;" d="M0 0L0 4L360 4L445 4C451.277 4 469.498 0.694168 470.852 9.01929C471.599 13.6126 472.985 28.1009 468.682 30.9722C466.333 32.5396 462.67 31.9988 460 32L440 32L363 32L0 32L0 36L578 36L578 0L0 0z"/>
	<path style="fill:#a9a9a9; stroke:none;" d="M0 4C4.21513 5.76874 9.46449 5 14 5L41 5L137 5L469 5C464.785 3.23125 459.536 4 455 4L428 4L332 4L0 4z"/>
	<path style="fill:#b3ced7; stroke:none;" d="M469 4L469 6L471 6C470.455 4.36482 470.635 4.54507 469 4z"/>
	<path style="fill:#fafafa; stroke:none;" d="M0 5L0 31L362 31L440 31L460 31C462.469 30.9989 466.311 31.6244 468.397 29.9722C470.136 28.5944 469.958 25.9809 469.995 23.9992C470.086 19.2212 470.655 13.7748 469.852 9.05864C469.207 5.27491 466.306 5.06715 462.999 5.00463C456.671 4.88499 450.329 5 444 5L359 5L0 5z"/>
	<path style="fill:#a9a9a9; stroke:none;" d="M470 6L470 30C472.349 24.403 472.349 11.5969 470 6z"/>
	<path style="fill:#04abe1; stroke:none;" d="M482 10L481 11C481.936 12.9486 482.392 13.5502 484 15C484.481 12.7993 484.481 12.2007 484 10L482 10z"/>
	<path style="fill:#5ec6e9; stroke:none;" d="M484 10L485 11L484 10z"/>
	<path style="fill:#b3ced7; stroke:none;" d="M455.667 11.3333C455.222 11.7778 456.278 11.7222 456.333 11.6667C456.778 11.2222 455.722 11.2778 455.667 11.3333z"/>
	<path style="fill:#5ec6e9; stroke:none;" d="M485.333 11.6667C485.278 11.7223 485.222 12.7778 485.667 12.3333C485.722 12.2779 485.778 11.2222 485.333 11.6667z"/>
	<path style="fill:#616161; stroke:none;" d="M455 12C453.331 14.7449 452.176 15.4965 449 16L453 21C453.212 19.0522 452.974 18.8735 452 17C454.092 16.5943 454.02 16.7833 455 15L457 15C457.98 16.7833 457.908 16.5943 460 17C459.043 18.5166 458.613 19.3386 458 21L463 17C460.31 15.5369 458.624 14.6725 457 12L455 12z"/>
	<path style="fill:#a9a9a9; stroke:none;" d="M520 12L521 13L520 12z"/>
	<path style="fill:#616161; stroke:none;" d="M521 12L520 13L521 15L523 14C522.455 12.3648 522.635 12.5451 521 12z"/>
	<path style="fill:#a9a9a9; stroke:none;" d="M522 12L523 13L522 12z"/>
	<path style="fill:#5ec6e9; stroke:none;" d="M481 13L482 14L481 13z"/>
	<path style="fill:#b3ced7; stroke:none;" d="M492 13C493.248 13.6848 493.548 13.7488 495 14C493.752 13.3152 493.452 13.2512 492 13M482 14L483 15L482 14z"/>
	<path style="fill:#5ec6e9; stroke:none;" d="M484 14L483 16L485 16C485 14.1468 485.3 14.6499 484 14M491 14L490 16C491.263 15.0287 491.392 15.3063 491 14z"/>
	<path style="fill:#04abe1; stroke:none;" d="M490 20C490.84 19.9724 492.212 20.0695 493.101 19.8519C499.122 18.3783 493.722 12.0135 490.604 16.9923C490.103 17.7929 490.13 19.1828 490 20z"/>
	<path style="fill:#5ec6e9; stroke:none;" d="M495 14L496 15L495 14z"/>
	<path style="fill:#a9a9a9; stroke:none;" d="M520 14L521 15L520 14M522 14L523 15L522 14z"/>
	<path style="fill:#b3ced7; stroke:none;" d="M450 15C451.506 15.683 452.315 15.8259 454 16C452.494 15.317 451.685 15.1741 450 15M455.667 15.3333C455.222 15.7778 456.278 15.7222 456.333 15.6667C456.778 15.2222 455.722 15.2778 455.667 15.3333M458 15C459.506 15.6831 460.315 15.8259 462 16C460.494 15.317 459.685 15.1741 458 15z"/>
	<path style="fill:#5ec6e9; stroke:none;" d="M496 15L497 16L496 15z"/>
	<path style="fill:#fafafa; stroke:none;" d="M453 17L454 21L458 21L459 17C456.768 16.6372 455.232 16.6372 453 17z"/>
	<path style="fill:#b3ced7; stroke:none;" d="M483.333 16.6667C483.278 16.7223 483.222 17.7778 483.667 17.3333C483.722 17.2778 483.778 16.2222 483.333 16.6667z"/>
	<path style="fill:#04abe1; stroke:none;" d="M484 16L484 19C484.696 17.4463 484.696 17.5537 484 16z"/>
	<path style="fill:#a9a9a9; stroke:none;" d="M452 17L453 18L452 17M459 17L460 18L459 17M520 17L521 18L520 17z"/>
	<path style="fill:#616161; stroke:none;" d="M521 17L520 18L521 20L523 19C522.455 17.3648 522.635 17.5451 521 17z"/>
	<path style="fill:#a9a9a9; stroke:none;" d="M522 17L523 18L522 17M451 18L452 19L451 18M453 18L454 19L453 18M458 18L459 19L458 18M460 18L461 19L460 18z"/>
	<path style="fill:#5ec6e9; stroke:none;" d="M485 18L483 22C485.132 21.2655 486.746 20.9916 489 21L485 18z"/>
	<path style="fill:#a9a9a9; stroke:none;" d="M452 19C453.322 23.5172 458.678 23.5171 460 19C456.855 20.8595 455.145 20.8595 452 19z"/>
	<path style="fill:#5ec6e9; stroke:none;" d="M489 19L490 20L489 19z"/>
	<path style="fill:#a9a9a9; stroke:none;" d="M520 19L521 20L520 19M522 19L523 20L522 19z"/>
	<path style="fill:#b3ced7; stroke:none;" d="M455.667 20.3333C455.222 20.7778 456.278 20.7222 456.333 20.6667C456.778 20.2223 455.722 20.2778 455.667 20.3333z"/>
	<path style="fill:#04abe1; stroke:none;" d="M487 26C488.667 18.8728 480.978 22.578 487 26z"/>
	<path style="fill:#616161; stroke:none;" d="M455.667 21.3333C455.222 21.7778 456.278 21.7222 456.333 21.6667C456.778 21.2223 455.722 21.2778 455.667 21.3333z"/>
	<path style="fill:#ed1d90; stroke:none;" d="M489 21L490 22L489 21z"/>
	<path style="fill:#ed132c; stroke:none;" d="M490.603 22.0278C483.308 27.8067 495.516 35.6304 501.397 30.9722C508.692 25.1933 496.484 17.3696 490.603 22.0278z"/>
	<path style="fill:#ed1d90; stroke:none;" d="M502 21L503 22L502 21z"/>
	<path style="fill:#616161; stroke:none;" d="M452 24L455 23C453.222 22.0445 452.979 22.2338 452 24M457 22C458.139 23.0155 458.612 23.3087 460 24C459.02 22.2167 459.092 22.4057 457 22z"/>
	<path style="fill:#a9a9a9; stroke:none;" d="M520 22L521 23L520 22z"/>
	<path style="fill:#616161; stroke:none;" d="M521 22L520 23L521 25L523 24C522.455 22.3648 522.635 22.5451 521 22z"/>
	<path style="fill:#a9a9a9; stroke:none;" d="M522 22L523 23L522 22z"/>
	<path style="fill:#b3ced7; stroke:none;" d="M451 23L451 25L453 25C452.455 23.3648 452.635 23.5451 451 23z"/>
	<path style="fill:#a9a9a9; stroke:none;" d="M453 23L454 24L453 23M458 23L459 24L458 23z"/>
	<path style="fill:#b3ced7; stroke:none;" d="M460 23L459 25L461 25C461 23.1468 461.3 23.6499 460 23z"/>
	<path style="fill:#5ec6e9; stroke:none;" d="M483 24L484 25L483 24z"/>
	<path style="fill:#fafafa; stroke:none;" d="M493 24C492.762 26.0948 492.816 27.8892 493 30C493.951 27.7147 493.951 26.2853 493 24z"/>
	<path style="fill:#ed1d90; stroke:none;" d="M494 24L494 30C494.951 27.7147 494.951 26.2853 494 24z"/>
	<path style="fill:#fafafa; stroke:none;" d="M498 27C497.792 25.3389 497.505 25.4601 499 25C496.628 23.7609 495.584 25.6428 498 27z"/>
	<path style="fill:#ed1d90; stroke:none;" d="M499 24L500 25L499 24z"/>
	<path style="fill:#a9a9a9; stroke:none;" d="M520 24L521 25L520 24M522 24L523 25L522 24z"/>
	<path style="fill:#5ec6e9; stroke:none;" d="M484 25L485 26L484 25z"/>
	<path style="fill:#b3ced7; stroke:none;" d="M487 25L488 26L487 25z"/>
	<path style="fill:#ed1d90; stroke:none;" d="M491 25L492 26L491 25M497 25L498 26L497 25M498 26L499 29C499.401 27.2337 499.289 27.4426 498 26z"/>
	<path style="fill:#a9a9a9; stroke:none;" d="M496.667 27.3333C496.222 27.7778 497.278 27.7223 497.333 27.6667C497.778 27.2223 496.722 27.2777 496.667 27.3333z"/>
	<path style="fill:#b3ced7; stroke:none;" d="M498 27C497.455 28.6352 497.635 28.4549 496 29C498.034 29.7852 498.785 29.0335 498 27M469 30L469 32C470.635 31.455 470.455 31.6351 471 30L469 30z"/>
	<path style="fill:#a9a9a9; stroke:none;" d="M0 31C4.21513 32.7687 9.46449 32 14 32L41 32L137 32L469 32C464.785 30.2313 459.536 31 455 31L428 31L332 31L0 31z"/>
	<path style="fill:#ed1d90; stroke:none;" d="M489 31L490 32L489 31M502 31L503 32L502 31z"/>
</svg>
