<?xml version="1.0" ?><svg enable-background="new 0 0 97.8 97.8" height="100%" id="svg2" version="1.1" viewBox="0 0 97.8 97.8" width="100%" xml:space="preserve" preserveAspectRatio="none" xmlns="http://www.w3.org/2000/svg" xmlns:cc="http://creativecommons.org/ns#" xmlns:dc="http://purl.org/dc/elements/1.1/" xmlns:inkscape="http://www.inkscape.org/namespaces/inkscape" xmlns:rdf="http://www.w3.org/1999/02/22-rdf-syntax-ns#" xmlns:sodipodi="http://sodipodi.sourceforge.net/DTD/sodipodi-0.dtd" xmlns:svg="http://www.w3.org/2000/svg"><path d="m 10.83249,41.5161 v 2.992991 6.58288 2.992991 c 18.175003,0 23.793911,3.847373 29.744772,7.92031 5.716795,3.913338 11.6283,7.959675 26.114465,7.959675 v -0.08937 c 0.68627,0.05958 1.18528,0.08831 1.18528,0.08831 l 5.076275,0.0149 -3.944195,9.984442 c -0.132998,0.335155 -0.02447,0.71819 0.261741,0.933115 0.143638,0.108527 0.311748,0.160662 0.481985,0.160662 0.172366,0 0.342604,-0.05426 0.487306,-0.164918 L 89.854694,65.811147 c 0.196838,-0.151085 0.312812,-0.385161 0.312812,-0.634134 0,-0.248973 -0.115974,-0.481986 -0.312812,-0.634135 L 70.239055,49.461945 c -0.286212,-0.220245 -0.683079,-0.221309 -0.969291,-0.0032 -0.287276,0.215989 -0.394739,0.59796 -0.261741,0.932051 l 3.944195,9.985506 H 65.882033 C 54.990012,60.245431 50.99049,57.529076 45.985502,54.103042 c -3.17919,-2.17585 -6.569048,-4.492147 -11.610201,-6.303051 5.041153,-1.811967 8.431011,-4.1272 11.610201,-6.303051 5.004988,-3.426034 9.00451,-6.142389 19.896531,-6.273259 h 7.070185 l -3.944195,9.985505 c -0.132998,0.334092 -0.02447,0.716062 0.261741,0.932051 0.287276,0.217054 0.684143,0.21599 0.969291,-0.0032 L 89.854694,31.057122 c 0.196838,-0.152154 0.312812,-0.385167 0.312812,-0.63414 0,-0.248973 -0.115974,-0.483049 -0.312812,-0.634135 L 70.239055,14.707914 c -0.144702,-0.110655 -0.31494,-0.164918 -0.487306,-0.164918 -0.170237,0 -0.338347,0.0532 -0.481985,0.160662 -0.287276,0.215989 -0.394739,0.599024 -0.261741,0.933115 l 3.944195,9.984442 -5.076275,0.0149 c 0,0 -0.500074,0.02766 -1.18528,0.08831 v -0.08937 c -14.486165,0 -20.39767,4.046337 -26.114465,7.95968 -5.949797,4.074001 -11.568705,7.921373 -29.743708,7.921373 z" id="path3"/></svg>