<?xml version="1.0" ?><svg enable-background="new 0 0 97.8 97.8" height="100%" id="svg2" version="1.1" viewBox="0 0 97.8 97.8" width="100%" xml:space="preserve" xmlns="http://www.w3.org/2000/svg" xmlns:cc="http://creativecommons.org/ns#" xmlns:dc="http://purl.org/dc/elements/1.1/" xmlns:inkscape="http://www.inkscape.org/namespaces/inkscape" xmlns:rdf="http://www.w3.org/1999/02/22-rdf-syntax-ns#" xmlns:sodipodi="http://sodipodi.sourceforge.net/DTD/sodipodi-0.dtd" xmlns:svg="http://www.w3.org/2000/svg"><defs id="defs12"/><path d="m 31.036462,57.900749 c 0.03389,-0.174922 0.124204,-0.327808 0.259736,-0.463813 l 6.549035,-6.549035 c 0.361433,-0.361433 0.936628,-0.361433 1.298676,0 L 58.048917,69.79291 62.983884,58.401667 c 0.165297,-0.381173 0.571892,-0.614578 0.983283,-0.556576 0.205387,0.02899 0.380695,0.120963 0.51947,0.259736 0.141243,0.140625 0.232599,0.330169 0.259736,0.538022 l 3.710501,28.366792 c 0.03701,0.284951 -0.0562,0.575665 -0.259734,0.779205 -0.202921,0.20292 -0.49487,0.297377 -0.779206,0.259736 L 39.051147,84.338071 c -0.414499,-0.05303 -0.740397,-0.367194 -0.797758,-0.779204 -0.0586,-0.412011 0.175406,-0.817366 0.556575,-0.983282 L 50.201205,77.640617 31.296198,58.735612 c -0.225896,-0.226664 -0.31621,-0.543326 -0.259736,-0.834863 z m 0.01855,-19.943948 c -3e-6,-0.236687 0.09757,-0.486558 0.278287,-0.66789 L 50.219758,18.402456 38.84707,13.46749 c -0.381171,-0.165914 -0.615172,-0.571272 -0.556576,-0.983283 0.05736,-0.412009 0.383259,-0.744739 0.797758,-0.797758 L 67.455039,7.9944991 c 0.284335,-0.037625 0.576285,0.056815 0.779205,0.2597355 0.203537,0.2035373 0.296743,0.4942533 0.259736,0.7792053 L 64.783478,37.381673 c -0.02714,0.207854 -0.118493,0.397398 -0.259735,0.538023 -0.138776,0.138775 -0.332636,0.230746 -0.538023,0.259735 -0.411392,0.05798 -0.799434,-0.156854 -0.964731,-0.538022 L 58.086022,26.250167 39.181015,45.155175 c -0.36205,0.361432 -0.955795,0.361432 -1.317229,0 l -6.530483,-6.549036 c -0.180711,-0.18134 -0.278286,-0.412651 -0.278287,-0.649338 z" id="path3"/></svg>