<?xml version="1.0" standalone="no"?><!-- Generator: Gravit.io --><svg xmlns="http://www.w3.org/2000/svg" xmlns:xlink="http://www.w3.org/1999/xlink" style="isolation:isolate" width="800" height="400"><rect x="0" y="0" width="800" height="400" transform="matrix(1,0,0,1,0,0)" fill="rgb(209,209,209)" stroke-width="1" stroke="rgba(0,0,0,0)" stroke-linejoin="miter" stroke-linecap="square"/><rect x="0" y="350" width="800" height="50" transform="matrix(1,0,0,1,0,0)" fill="rgb(70,70,70)" stroke-width="1" stroke="rgba(0,0,0,0)" stroke-linejoin="miter" stroke-linecap="square"/><polygon points="15.000000000000028,390,15,360,40.98076211353316,375" fill="rgb(255,255,255)" stroke-width="1" stroke="rgba(0,0,0,0)" stroke-linejoin="miter" stroke-linecap="square"/><rect x="0" y="100" width="600" height="60" transform="matrix(1,0,0,1,0,0)" fill="rgb(70,70,70)" stroke-width="1" stroke="rgba(0,0,0,0)" stroke-linejoin="miter" stroke-linecap="square"/><path d=" M 202.802734375 138.376953125 L 201.142578125 138.376953125 L 201.142578125 131.658203125 L 193.623046875 131.658203125 L 193.623046875 138.376953125 L 191.962890625 138.376953125 L 191.962890625 124.099609375 L 193.623046875 124.099609375 L 193.623046875 130.173828125 L 201.142578125 130.173828125 L 201.142578125 124.099609375 L 202.802734375 124.099609375 L 202.802734375 138.376953125 Z  M 207.998046875 127.673828125 L 207.998046875 134.6171875 Q 207.998046875 135.92578125 208.59375 136.5703125 Q 209.189453125 137.21484375 210.458984375 137.21484375 Q 212.138671875 137.21484375 212.9150390625 136.296875 Q 213.69140625 135.37890625 213.69140625 133.298828125 L 213.69140625 127.673828125 L 215.3125 127.673828125 L 215.3125 138.376953125 L 213.974609375 138.376953125 L 213.740234375 136.94140625 L 213.65234375 136.94140625 Q 213.154296875 137.732421875 212.2705078125 138.15234375 Q 211.38671875 138.572265625 210.25390625 138.572265625 Q 208.30078125 138.572265625 207.3291015625 137.64453125 Q 206.357421875 136.716796875 206.357421875 134.67578125 L 206.357421875 127.673828125 L 207.998046875 127.673828125 Z  M 232.392578125 138.376953125 L 232.392578125 131.4140625 Q 232.392578125 130.134765625 231.845703125 129.4951171875 Q 231.298828125 128.85546875 230.146484375 128.85546875 Q 228.6328125 128.85546875 227.91015625 129.724609375 Q 227.1875 130.59375 227.1875 132.400390625 L 227.1875 138.376953125 L 225.56640625 138.376953125 L 225.56640625 131.4140625 Q 225.56640625 130.134765625 225.01953125 129.4951171875 Q 224.47265625 128.85546875 223.310546875 128.85546875 Q 221.787109375 128.85546875 221.0791015625 129.7685546875 Q 220.37109375 130.681640625 220.37109375 132.76171875 L 220.37109375 138.376953125 L 218.75 138.376953125 L 218.75 127.673828125 L 220.068359375 127.673828125 L 220.33203125 129.138671875 L 220.41015625 129.138671875 Q 220.869140625 128.357421875 221.7041015625 127.91796875 Q 222.5390625 127.478515625 223.57421875 127.478515625 Q 226.083984375 127.478515625 226.85546875 129.294921875 L 226.93359375 129.294921875 Q 227.412109375 128.455078125 228.3203125 127.966796875 Q 229.228515625 127.478515625 230.390625 127.478515625 Q 232.20703125 127.478515625 233.1103515625 128.4111328125 Q 234.013671875 129.34375 234.013671875 131.39453125 L 234.013671875 138.376953125 L 232.392578125 138.376953125 Z  M 243.935546875 138.376953125 L 243.61328125 136.853515625 L 243.53515625 136.853515625 Q 242.734375 137.859375 241.9384765625 138.2158203125 Q 241.142578125 138.572265625 239.951171875 138.572265625 Q 238.359375 138.572265625 237.4560546875 137.751953125 Q 236.552734375 136.931640625 236.552734375 135.41796875 Q 236.552734375 132.17578125 241.73828125 132.01953125 L 243.5546875 131.9609375 L 243.5546875 131.296875 Q 243.5546875 130.037109375 243.0126953125 129.4365234375 Q 242.470703125 128.8359375 241.279296875 128.8359375 Q 239.94140625 128.8359375 238.251953125 129.65625 L 237.75390625 128.416015625 Q 238.544921875 127.986328125 239.4873046875 127.7421875 Q 240.4296875 127.498046875 241.376953125 127.498046875 Q 243.291015625 127.498046875 244.2138671875 128.34765625 Q 245.13671875 129.197265625 245.13671875 131.072265625 L 245.13671875 138.376953125 L 243.935546875 138.376953125 Z  M 240.2734375 137.234375 Q 241.787109375 137.234375 242.6513671875 136.404296875 Q 243.515625 135.57421875 243.515625 134.080078125 L 243.515625 133.11328125 L 241.89453125 133.181640625 Q 239.9609375 133.25 239.1064453125 133.7822265625 Q 238.251953125 134.314453125 238.251953125 135.4375 Q 238.251953125 136.31640625 238.7841796875 136.775390625 Q 239.31640625 137.234375 240.2734375 137.234375 Z  M 255.80078125 138.376953125 L 255.80078125 131.453125 Q 255.80078125 130.14453125 255.205078125 129.5 Q 254.609375 128.85546875 253.33984375 128.85546875 Q 251.66015625 128.85546875 250.87890625 129.763671875 Q 250.09765625 130.671875 250.09765625 132.76171875 L 250.09765625 138.376953125 L 248.4765625 138.376953125 L 248.4765625 127.673828125 L 249.794921875 127.673828125 L 250.05859375 129.138671875 L 250.13671875 129.138671875 Q 250.634765625 128.34765625 251.533203125 127.9130859375 Q 252.431640625 127.478515625 253.53515625 127.478515625 Q 255.46875 127.478515625 256.4453125 128.4111328125 Q 257.421875 129.34375 257.421875 131.39453125 L 257.421875 138.376953125 L 255.80078125 138.376953125 Z  M 272.529296875 138.376953125 L 272.20703125 136.853515625 L 272.12890625 136.853515625 Q 271.328125 137.859375 270.5322265625 138.2158203125 Q 269.736328125 138.572265625 268.544921875 138.572265625 Q 266.953125 138.572265625 266.0498046875 137.751953125 Q 265.146484375 136.931640625 265.146484375 135.41796875 Q 265.146484375 132.17578125 270.33203125 132.01953125 L 272.1484375 131.9609375 L 272.1484375 131.296875 Q 272.1484375 130.037109375 271.6064453125 129.4365234375 Q 271.064453125 128.8359375 269.873046875 128.8359375 Q 268.53515625 128.8359375 266.845703125 129.65625 L 266.34765625 128.416015625 Q 267.138671875 127.986328125 268.0810546875 127.7421875 Q 269.0234375 127.498046875 269.970703125 127.498046875 Q 271.884765625 127.498046875 272.8076171875 128.34765625 Q 273.73046875 129.197265625 273.73046875 131.072265625 L 273.73046875 138.376953125 L 272.529296875 138.376953125 Z  M 268.8671875 137.234375 Q 270.380859375 137.234375 271.2451171875 136.404296875 Q 272.109375 135.57421875 272.109375 134.080078125 L 272.109375 133.11328125 L 270.48828125 133.181640625 Q 268.5546875 133.25 267.7001953125 133.7822265625 Q 266.845703125 134.314453125 266.845703125 135.4375 Q 266.845703125 136.31640625 267.3779296875 136.775390625 Q 267.91015625 137.234375 268.8671875 137.234375 Z  M 281.34765625 138.572265625 Q 279.0234375 138.572265625 277.7490234375 137.1416015625 Q 276.474609375 135.7109375 276.474609375 133.09375 Q 276.474609375 130.408203125 277.7685546875 128.943359375 Q 279.0625 127.478515625 281.455078125 127.478515625 Q 282.2265625 127.478515625 282.998046875 127.64453125 Q 283.76953125 127.810546875 284.208984375 128.03515625 L 283.7109375 129.412109375 Q 283.173828125 129.197265625 282.5390625 129.0556640625 Q 281.904296875 128.9140625 281.416015625 128.9140625 Q 278.154296875 128.9140625 278.154296875 133.07421875 Q 278.154296875 135.046875 278.9501953125 136.1015625 Q 279.74609375 137.15625 281.30859375 137.15625 Q 282.646484375 137.15625 284.052734375 136.580078125 L 284.052734375 138.015625 Q 282.978515625 138.572265625 281.34765625 138.572265625 Z  M 290.048828125 137.234375 Q 290.478515625 137.234375 290.87890625 137.1708984375 Q 291.279296875 137.107421875 291.513671875 137.0390625 L 291.513671875 138.279296875 Q 291.25 138.40625 290.7373046875 138.4892578125 Q 290.224609375 138.572265625 289.814453125 138.572265625 Q 286.708984375 138.572265625 286.708984375 135.30078125 L 286.708984375 128.93359375 L 285.17578125 128.93359375 L 285.17578125 128.15234375 L 286.708984375 127.478515625 L 287.392578125 125.193359375 L 288.330078125 125.193359375 L 288.330078125 127.673828125 L 291.435546875 127.673828125 L 291.435546875 128.93359375 L 288.330078125 128.93359375 L 288.330078125 135.232421875 Q 288.330078125 136.19921875 288.7890625 136.716796875 Q 289.248046875 137.234375 290.048828125 137.234375 Z  M 295.2734375 138.376953125 L 293.65234375 138.376953125 L 293.65234375 127.673828125 L 295.2734375 127.673828125 L 295.2734375 138.376953125 Z  M 293.515625 124.7734375 Q 293.515625 124.216796875 293.7890625 123.9580078125 Q 294.0625 123.69921875 294.47265625 123.69921875 Q 294.86328125 123.69921875 295.146484375 123.962890625 Q 295.4296875 124.2265625 295.4296875 124.7734375 Q 295.4296875 125.3203125 295.146484375 125.5888671875 Q 294.86328125 125.857421875 294.47265625 125.857421875 Q 294.0625 125.857421875 293.7890625 125.5888671875 Q 293.515625 125.3203125 293.515625 124.7734375 Z  M 301.0546875 138.376953125 L 296.9921875 127.673828125 L 298.73046875 127.673828125 L 301.03515625 134.021484375 Q 301.81640625 136.248046875 301.953125 136.912109375 L 302.03125 136.912109375 Q 302.138671875 136.39453125 302.7099609375 134.7685546875 Q 303.28125 133.142578125 305.2734375 127.673828125 L 307.01171875 127.673828125 L 302.94921875 138.376953125 L 301.0546875 138.376953125 Z  M 310.3515625 138.376953125 L 308.73046875 138.376953125 L 308.73046875 127.673828125 L 310.3515625 127.673828125 L 310.3515625 138.376953125 Z  M 308.59375 124.7734375 Q 308.59375 124.216796875 308.8671875 123.9580078125 Q 309.140625 123.69921875 309.55078125 123.69921875 Q 309.94140625 123.69921875 310.224609375 123.962890625 Q 310.5078125 124.2265625 310.5078125 124.7734375 Q 310.5078125 125.3203125 310.224609375 125.5888671875 Q 309.94140625 125.857421875 309.55078125 125.857421875 Q 309.140625 125.857421875 308.8671875 125.5888671875 Q 308.59375 125.3203125 308.59375 124.7734375 Z  M 317.24609375 137.234375 Q 317.67578125 137.234375 318.076171875 137.1708984375 Q 318.4765625 137.107421875 318.7109375 137.0390625 L 318.7109375 138.279296875 Q 318.447265625 138.40625 317.9345703125 138.4892578125 Q 317.421875 138.572265625 317.01171875 138.572265625 Q 313.90625 138.572265625 313.90625 135.30078125 L 313.90625 128.93359375 L 312.373046875 128.93359375 L 312.373046875 128.15234375 L 313.90625 127.478515625 L 314.58984375 125.193359375 L 315.52734375 125.193359375 L 315.52734375 127.673828125 L 318.6328125 127.673828125 L 318.6328125 128.93359375 L 315.52734375 128.93359375 L 315.52734375 135.232421875 Q 315.52734375 136.19921875 315.986328125 136.716796875 Q 316.4453125 137.234375 317.24609375 137.234375 Z  M 319.150390625 127.673828125 L 320.888671875 127.673828125 L 323.232421875 133.77734375 Q 324.00390625 135.8671875 324.189453125 136.794921875 L 324.267578125 136.794921875 Q 324.39453125 136.296875 324.7998046875 135.0908203125 Q 325.205078125 133.884765625 327.451171875 127.673828125 L 329.189453125 127.673828125 L 324.58984375 139.861328125 Q 323.90625 141.66796875 322.9931640625 142.4248046875 Q 322.080078125 143.181640625 320.751953125 143.181640625 Q 320.009765625 143.181640625 319.287109375 143.015625 L 319.287109375 141.716796875 Q 319.82421875 141.833984375 320.48828125 141.833984375 Q 322.158203125 141.833984375 322.87109375 139.958984375 L 323.466796875 138.435546875 L 319.150390625 127.673828125 Z  M 337.744140625 138.376953125 L 336.123046875 138.376953125 L 336.123046875 127.673828125 L 337.744140625 127.673828125 L 337.744140625 138.376953125 Z  M 335.986328125 124.7734375 Q 335.986328125 124.216796875 336.259765625 123.9580078125 Q 336.533203125 123.69921875 336.943359375 123.69921875 Q 337.333984375 123.69921875 337.6171875 123.962890625 Q 337.900390625 124.2265625 337.900390625 124.7734375 Q 337.900390625 125.3203125 337.6171875 125.5888671875 Q 337.333984375 125.857421875 336.943359375 125.857421875 Q 336.533203125 125.857421875 336.259765625 125.5888671875 Q 335.986328125 125.3203125 335.986328125 124.7734375 Z  M 348.0859375 135.45703125 Q 348.0859375 136.951171875 346.97265625 137.76171875 Q 345.859375 138.572265625 343.84765625 138.572265625 Q 341.71875 138.572265625 340.52734375 137.8984375 L 340.52734375 136.39453125 Q 341.298828125 136.78515625 342.1826171875 137.009765625 Q 343.06640625 137.234375 343.88671875 137.234375 Q 345.15625 137.234375 345.83984375 136.8291015625 Q 346.5234375 136.423828125 346.5234375 135.59375 Q 346.5234375 134.96875 345.9814453125 134.5244140625 Q 345.439453125 134.080078125 343.8671875 133.474609375 Q 342.373046875 132.91796875 341.7431640625 132.5029296875 Q 341.11328125 132.087890625 340.8056640625 131.560546875 Q 340.498046875 131.033203125 340.498046875 130.30078125 Q 340.498046875 128.9921875 341.5625 128.2353515625 Q 342.626953125 127.478515625 344.482421875 127.478515625 Q 346.2109375 127.478515625 347.861328125 128.181640625 L 347.28515625 129.5 Q 345.673828125 128.8359375 344.365234375 128.8359375 Q 343.212890625 128.8359375 342.626953125 129.197265625 Q 342.041015625 129.55859375 342.041015625 130.193359375 Q 342.041015625 130.623046875 342.2607421875 130.92578125 Q 342.48046875 131.228515625 342.96875 131.501953125 Q 343.45703125 131.775390625 344.84375 132.29296875 Q 346.748046875 132.986328125 347.4169921875 133.689453125 Q 348.0859375 134.392578125 348.0859375 135.45703125 Z  M 360.1953125 138.572265625 Q 357.87109375 138.572265625 356.5966796875 137.1416015625 Q 355.322265625 135.7109375 355.322265625 133.09375 Q 355.322265625 130.408203125 356.6162109375 128.943359375 Q 357.91015625 127.478515625 360.302734375 127.478515625 Q 361.07421875 127.478515625 361.845703125 127.64453125 Q 362.6171875 127.810546875 363.056640625 128.03515625 L 362.55859375 129.412109375 Q 362.021484375 129.197265625 361.38671875 129.0556640625 Q 360.751953125 128.9140625 360.263671875 128.9140625 Q 357.001953125 128.9140625 357.001953125 133.07421875 Q 357.001953125 135.046875 357.7978515625 136.1015625 Q 358.59375 137.15625 360.15625 137.15625 Q 361.494140625 137.15625 362.900390625 136.580078125 L 362.900390625 138.015625 Q 361.826171875 138.572265625 360.1953125 138.572265625 Z  M 372.021484375 138.376953125 L 371.69921875 136.853515625 L 371.62109375 136.853515625 Q 370.8203125 137.859375 370.0244140625 138.2158203125 Q 369.228515625 138.572265625 368.037109375 138.572265625 Q 366.4453125 138.572265625 365.5419921875 137.751953125 Q 364.638671875 136.931640625 364.638671875 135.41796875 Q 364.638671875 132.17578125 369.82421875 132.01953125 L 371.640625 131.9609375 L 371.640625 131.296875 Q 371.640625 130.037109375 371.0986328125 129.4365234375 Q 370.556640625 128.8359375 369.365234375 128.8359375 Q 368.02734375 128.8359375 366.337890625 129.65625 L 365.83984375 128.416015625 Q 366.630859375 127.986328125 367.5732421875 127.7421875 Q 368.515625 127.498046875 369.462890625 127.498046875 Q 371.376953125 127.498046875 372.2998046875 128.34765625 Q 373.22265625 129.197265625 373.22265625 131.072265625 L 373.22265625 138.376953125 L 372.021484375 138.376953125 Z  M 368.359375 137.234375 Q 369.873046875 137.234375 370.7373046875 136.404296875 Q 371.6015625 135.57421875 371.6015625 134.080078125 L 371.6015625 133.11328125 L 369.98046875 133.181640625 Q 368.046875 133.25 367.1923828125 133.7822265625 Q 366.337890625 134.314453125 366.337890625 135.4375 Q 366.337890625 136.31640625 366.8701171875 136.775390625 Q 367.40234375 137.234375 368.359375 137.234375 Z  M 378.0859375 127.673828125 L 378.0859375 134.6171875 Q 378.0859375 135.92578125 378.681640625 136.5703125 Q 379.27734375 137.21484375 380.546875 137.21484375 Q 382.2265625 137.21484375 383.0029296875 136.296875 Q 383.779296875 135.37890625 383.779296875 133.298828125 L 383.779296875 127.673828125 L 385.400390625 127.673828125 L 385.400390625 138.376953125 L 384.0625 138.376953125 L 383.828125 136.94140625 L 383.740234375 136.94140625 Q 383.2421875 137.732421875 382.3583984375 138.15234375 Q 381.474609375 138.572265625 380.341796875 138.572265625 Q 378.388671875 138.572265625 377.4169921875 137.64453125 Q 376.4453125 136.716796875 376.4453125 134.67578125 L 376.4453125 127.673828125 L 378.0859375 127.673828125 Z  M 395.7421875 135.45703125 Q 395.7421875 136.951171875 394.62890625 137.76171875 Q 393.515625 138.572265625 391.50390625 138.572265625 Q 389.375 138.572265625 388.18359375 137.8984375 L 388.18359375 136.39453125 Q 388.955078125 136.78515625 389.8388671875 137.009765625 Q 390.72265625 137.234375 391.54296875 137.234375 Q 392.8125 137.234375 393.49609375 136.8291015625 Q 394.1796875 136.423828125 394.1796875 135.59375 Q 394.1796875 134.96875 393.6376953125 134.5244140625 Q 393.095703125 134.080078125 391.5234375 133.474609375 Q 390.029296875 132.91796875 389.3994140625 132.5029296875 Q 388.76953125 132.087890625 388.4619140625 131.560546875 Q 388.154296875 131.033203125 388.154296875 130.30078125 Q 388.154296875 128.9921875 389.21875 128.2353515625 Q 390.283203125 127.478515625 392.138671875 127.478515625 Q 393.8671875 127.478515625 395.517578125 128.181640625 L 394.94140625 129.5 Q 393.330078125 128.8359375 392.021484375 128.8359375 Q 390.869140625 128.8359375 390.283203125 129.197265625 Q 389.697265625 129.55859375 389.697265625 130.193359375 Q 389.697265625 130.623046875 389.9169921875 130.92578125 Q 390.13671875 131.228515625 390.625 131.501953125 Q 391.11328125 131.775390625 392.5 132.29296875 Q 394.404296875 132.986328125 395.0732421875 133.689453125 Q 395.7421875 134.392578125 395.7421875 135.45703125 Z  M 400 138.376953125 L 398.37890625 138.376953125 L 398.37890625 127.673828125 L 400 127.673828125 L 400 138.376953125 Z  M 398.2421875 124.7734375 Q 398.2421875 124.216796875 398.515625 123.9580078125 Q 398.7890625 123.69921875 399.19921875 123.69921875 Q 399.58984375 123.69921875 399.873046875 123.962890625 Q 400.15625 124.2265625 400.15625 124.7734375 Q 400.15625 125.3203125 399.873046875 125.5888671875 Q 399.58984375 125.857421875 399.19921875 125.857421875 Q 398.7890625 125.857421875 398.515625 125.5888671875 Q 398.2421875 125.3203125 398.2421875 124.7734375 Z  M 410.76171875 138.376953125 L 410.76171875 131.453125 Q 410.76171875 130.14453125 410.166015625 129.5 Q 409.5703125 128.85546875 408.30078125 128.85546875 Q 406.62109375 128.85546875 405.83984375 129.763671875 Q 405.05859375 130.671875 405.05859375 132.76171875 L 405.05859375 138.376953125 L 403.4375 138.376953125 L 403.4375 127.673828125 L 404.755859375 127.673828125 L 405.01953125 129.138671875 L 405.09765625 129.138671875 Q 405.595703125 128.34765625 406.494140625 127.9130859375 Q 407.392578125 127.478515625 408.49609375 127.478515625 Q 410.4296875 127.478515625 411.40625 128.4111328125 Q 412.3828125 129.34375 412.3828125 131.39453125 L 412.3828125 138.376953125 L 410.76171875 138.376953125 Z  M 424.47265625 127.673828125 L 424.47265625 128.69921875 L 422.490234375 128.93359375 Q 422.763671875 129.275390625 422.978515625 129.8271484375 Q 423.193359375 130.37890625 423.193359375 131.072265625 Q 423.193359375 132.64453125 422.119140625 133.58203125 Q 421.044921875 134.51953125 419.169921875 134.51953125 Q 418.69140625 134.51953125 418.271484375 134.44140625 Q 417.236328125 134.98828125 417.236328125 135.818359375 Q 417.236328125 136.2578125 417.59765625 136.4677734375 Q 417.958984375 136.677734375 418.837890625 136.677734375 L 420.732421875 136.677734375 Q 422.470703125 136.677734375 423.4033203125 137.41015625 Q 424.3359375 138.142578125 424.3359375 139.5390625 Q 424.3359375 141.31640625 422.91015625 142.2490234375 Q 421.484375 143.181640625 418.75 143.181640625 Q 416.650390625 143.181640625 415.5126953125 142.400390625 Q 414.375 141.619140625 414.375 140.193359375 Q 414.375 139.216796875 415 138.50390625 Q 415.625 137.791015625 416.7578125 137.537109375 Q 416.34765625 137.3515625 416.0693359375 136.9609375 Q 415.791015625 136.5703125 415.791015625 136.052734375 Q 415.791015625 135.466796875 416.103515625 135.02734375 Q 416.416015625 134.587890625 417.08984375 134.177734375 Q 416.259765625 133.8359375 415.7373046875 133.015625 Q 415.21484375 132.1953125 415.21484375 131.140625 Q 415.21484375 129.3828125 416.26953125 128.4306640625 Q 417.32421875 127.478515625 419.2578125 127.478515625 Q 420.09765625 127.478515625 420.771484375 127.673828125 L 424.47265625 127.673828125 Z  M 415.9375 140.173828125 Q 415.9375 141.04296875 416.669921875 141.4921875 Q 417.40234375 141.94140625 418.76953125 141.94140625 Q 420.810546875 141.94140625 421.7919921875 141.3310546875 Q 422.7734375 140.720703125 422.7734375 139.67578125 Q 422.7734375 138.806640625 422.236328125 138.4697265625 Q 421.69921875 138.1328125 420.21484375 138.1328125 L 418.271484375 138.1328125 Q 417.16796875 138.1328125 416.552734375 138.66015625 Q 415.9375 139.1875 415.9375 140.173828125 Z  M 416.81640625 131.1015625 Q 416.81640625 132.224609375 417.451171875 132.80078125 Q 418.0859375 133.376953125 419.21875 133.376953125 Q 421.591796875 133.376953125 421.591796875 131.072265625 Q 421.591796875 128.66015625 419.189453125 128.66015625 Q 418.046875 128.66015625 417.431640625 129.275390625 Q 416.81640625 129.890625 416.81640625 131.1015625 Z  M 440.625 127.673828125 L 440.625 128.69921875 L 438.642578125 128.93359375 Q 438.916015625 129.275390625 439.130859375 129.8271484375 Q 439.345703125 130.37890625 439.345703125 131.072265625 Q 439.345703125 132.64453125 438.271484375 133.58203125 Q 437.197265625 134.51953125 435.322265625 134.51953125 Q 434.84375 134.51953125 434.423828125 134.44140625 Q 433.388671875 134.98828125 433.388671875 135.818359375 Q 433.388671875 136.2578125 433.75 136.4677734375 Q 434.111328125 136.677734375 434.990234375 136.677734375 L 436.884765625 136.677734375 Q 438.623046875 136.677734375 439.5556640625 137.41015625 Q 440.48828125 138.142578125 440.48828125 139.5390625 Q 440.48828125 141.31640625 439.0625 142.2490234375 Q 437.63671875 143.181640625 434.90234375 143.181640625 Q 432.802734375 143.181640625 431.6650390625 142.400390625 Q 430.52734375 141.619140625 430.52734375 140.193359375 Q 430.52734375 139.216796875 431.15234375 138.50390625 Q 431.77734375 137.791015625 432.91015625 137.537109375 Q 432.5 137.3515625 432.2216796875 136.9609375 Q 431.943359375 136.5703125 431.943359375 136.052734375 Q 431.943359375 135.466796875 432.255859375 135.02734375 Q 432.568359375 134.587890625 433.2421875 134.177734375 Q 432.412109375 133.8359375 431.8896484375 133.015625 Q 431.3671875 132.1953125 431.3671875 131.140625 Q 431.3671875 129.3828125 432.421875 128.4306640625 Q 433.4765625 127.478515625 435.41015625 127.478515625 Q 436.25 127.478515625 436.923828125 127.673828125 L 440.625 127.673828125 Z  M 432.08984375 140.173828125 Q 432.08984375 141.04296875 432.822265625 141.4921875 Q 433.5546875 141.94140625 434.921875 141.94140625 Q 436.962890625 141.94140625 437.9443359375 141.3310546875 Q 438.92578125 140.720703125 438.92578125 139.67578125 Q 438.92578125 138.806640625 438.388671875 138.4697265625 Q 437.8515625 138.1328125 436.3671875 138.1328125 L 434.423828125 138.1328125 Q 433.3203125 138.1328125 432.705078125 138.66015625 Q 432.08984375 139.1875 432.08984375 140.173828125 Z  M 432.96875 131.1015625 Q 432.96875 132.224609375 433.603515625 132.80078125 Q 434.23828125 133.376953125 435.37109375 133.376953125 Q 437.744140625 133.376953125 437.744140625 131.072265625 Q 437.744140625 128.66015625 435.341796875 128.66015625 Q 434.19921875 128.66015625 433.583984375 129.275390625 Q 432.96875 129.890625 432.96875 131.1015625 Z  M 444.443359375 138.376953125 L 442.822265625 138.376953125 L 442.822265625 123.181640625 L 444.443359375 123.181640625 L 444.443359375 138.376953125 Z  M 457.119140625 133.015625 Q 457.119140625 135.6328125 455.80078125 137.1025390625 Q 454.482421875 138.572265625 452.158203125 138.572265625 Q 450.72265625 138.572265625 449.609375 137.8984375 Q 448.49609375 137.224609375 447.890625 135.96484375 Q 447.28515625 134.705078125 447.28515625 133.015625 Q 447.28515625 130.3984375 448.59375 128.9384765625 Q 449.90234375 127.478515625 452.2265625 127.478515625 Q 454.47265625 127.478515625 455.7958984375 128.97265625 Q 457.119140625 130.466796875 457.119140625 133.015625 Z  M 448.96484375 133.015625 Q 448.96484375 135.06640625 449.78515625 136.140625 Q 450.60546875 137.21484375 452.197265625 137.21484375 Q 453.7890625 137.21484375 454.6142578125 136.1455078125 Q 455.439453125 135.076171875 455.439453125 133.015625 Q 455.439453125 130.974609375 454.6142578125 129.9150390625 Q 453.7890625 128.85546875 452.177734375 128.85546875 Q 450.5859375 128.85546875 449.775390625 129.900390625 Q 448.96484375 130.9453125 448.96484375 133.015625 Z  M 464.94140625 127.498046875 Q 467.05078125 127.498046875 468.2177734375 128.9384765625 Q 469.384765625 130.37890625 469.384765625 133.015625 Q 469.384765625 135.65234375 468.2080078125 137.1123046875 Q 467.03125 138.572265625 464.94140625 138.572265625 Q 463.896484375 138.572265625 463.0322265625 138.1865234375 Q 462.16796875 137.80078125 461.58203125 137 L 461.46484375 137 L 461.123046875 138.376953125 L 459.9609375 138.376953125 L 459.9609375 123.181640625 L 461.58203125 123.181640625 L 461.58203125 126.873046875 Q 461.58203125 128.11328125 461.50390625 129.099609375 L 461.58203125 129.099609375 Q 462.71484375 127.498046875 464.94140625 127.498046875 Z  M 464.70703125 128.85546875 Q 463.046875 128.85546875 462.314453125 129.8076171875 Q 461.58203125 130.759765625 461.58203125 133.015625 Q 461.58203125 135.271484375 462.333984375 136.2431640625 Q 463.0859375 137.21484375 464.74609375 137.21484375 Q 466.240234375 137.21484375 466.97265625 136.1259765625 Q 467.705078125 135.037109375 467.705078125 132.99609375 Q 467.705078125 130.90625 466.97265625 129.880859375 Q 466.240234375 128.85546875 464.70703125 128.85546875 Z  M 478.798828125 138.376953125 L 478.4765625 136.853515625 L 478.3984375 136.853515625 Q 477.59765625 137.859375 476.8017578125 138.2158203125 Q 476.005859375 138.572265625 474.814453125 138.572265625 Q 473.22265625 138.572265625 472.3193359375 137.751953125 Q 471.416015625 136.931640625 471.416015625 135.41796875 Q 471.416015625 132.17578125 476.6015625 132.01953125 L 478.41796875 131.9609375 L 478.41796875 131.296875 Q 478.41796875 130.037109375 477.8759765625 129.4365234375 Q 477.333984375 128.8359375 476.142578125 128.8359375 Q 474.8046875 128.8359375 473.115234375 129.65625 L 472.6171875 128.416015625 Q 473.408203125 127.986328125 474.3505859375 127.7421875 Q 475.29296875 127.498046875 476.240234375 127.498046875 Q 478.154296875 127.498046875 479.0771484375 128.34765625 Q 480 129.197265625 480 131.072265625 L 480 138.376953125 L 478.798828125 138.376953125 Z  M 475.13671875 137.234375 Q 476.650390625 137.234375 477.5146484375 136.404296875 Q 478.37890625 135.57421875 478.37890625 134.080078125 L 478.37890625 133.11328125 L 476.7578125 133.181640625 Q 474.82421875 133.25 473.9697265625 133.7822265625 Q 473.115234375 134.314453125 473.115234375 135.4375 Q 473.115234375 136.31640625 473.6474609375 136.775390625 Q 474.1796875 137.234375 475.13671875 137.234375 Z  M 484.9609375 138.376953125 L 483.33984375 138.376953125 L 483.33984375 123.181640625 L 484.9609375 123.181640625 L 484.9609375 138.376953125 Z  M 502.333984375 138.376953125 L 500.37109375 132.09765625 Q 500.185546875 131.521484375 499.677734375 129.48046875 L 499.599609375 129.48046875 Q 499.208984375 131.189453125 498.916015625 132.1171875 L 496.89453125 138.376953125 L 495.01953125 138.376953125 L 492.099609375 127.673828125 L 493.798828125 127.673828125 Q 494.833984375 131.70703125 495.3759765625 133.81640625 Q 495.91796875 135.92578125 495.99609375 136.658203125 L 496.07421875 136.658203125 Q 496.181640625 136.1015625 496.4208984375 135.2177734375 Q 496.66015625 134.333984375 496.8359375 133.81640625 L 498.798828125 127.673828125 L 500.556640625 127.673828125 L 502.470703125 133.81640625 Q 503.017578125 135.49609375 503.212890625 136.638671875 L 503.291015625 136.638671875 Q 503.330078125 136.287109375 503.5009765625 135.5546875 Q 503.671875 134.822265625 505.537109375 127.673828125 L 507.216796875 127.673828125 L 504.2578125 138.376953125 L 502.333984375 138.376953125 Z  M 515.732421875 138.376953125 L 515.41015625 136.853515625 L 515.33203125 136.853515625 Q 514.53125 137.859375 513.7353515625 138.2158203125 Q 512.939453125 138.572265625 511.748046875 138.572265625 Q 510.15625 138.572265625 509.2529296875 137.751953125 Q 508.349609375 136.931640625 508.349609375 135.41796875 Q 508.349609375 132.17578125 513.53515625 132.01953125 L 515.3515625 131.9609375 L 515.3515625 131.296875 Q 515.3515625 130.037109375 514.8095703125 129.4365234375 Q 514.267578125 128.8359375 513.076171875 128.8359375 Q 511.73828125 128.8359375 510.048828125 129.65625 L 509.55078125 128.416015625 Q 510.341796875 127.986328125 511.2841796875 127.7421875 Q 512.2265625 127.498046875 513.173828125 127.498046875 Q 515.087890625 127.498046875 516.0107421875 128.34765625 Q 516.93359375 129.197265625 516.93359375 131.072265625 L 516.93359375 138.376953125 L 515.732421875 138.376953125 Z  M 512.0703125 137.234375 Q 513.583984375 137.234375 514.4482421875 136.404296875 Q 515.3125 135.57421875 515.3125 134.080078125 L 515.3125 133.11328125 L 513.69140625 133.181640625 Q 511.7578125 133.25 510.9033203125 133.7822265625 Q 510.048828125 134.314453125 510.048828125 135.4375 Q 510.048828125 136.31640625 510.5810546875 136.775390625 Q 511.11328125 137.234375 512.0703125 137.234375 Z  M 525.15625 127.478515625 Q 525.869140625 127.478515625 526.435546875 127.595703125 L 526.2109375 129.099609375 Q 525.546875 128.953125 525.0390625 128.953125 Q 523.740234375 128.953125 522.8173828125 130.0078125 Q 521.89453125 131.0625 521.89453125 132.634765625 L 521.89453125 138.376953125 L 520.2734375 138.376953125 L 520.2734375 127.673828125 L 521.611328125 127.673828125 L 521.796875 129.65625 L 521.875 129.65625 Q 522.470703125 128.611328125 523.310546875 128.044921875 Q 524.150390625 127.478515625 525.15625 127.478515625 Z  M 542.080078125 138.376953125 L 542.080078125 131.4140625 Q 542.080078125 130.134765625 541.533203125 129.4951171875 Q 540.986328125 128.85546875 539.833984375 128.85546875 Q 538.3203125 128.85546875 537.59765625 129.724609375 Q 536.875 130.59375 536.875 132.400390625 L 536.875 138.376953125 L 535.25390625 138.376953125 L 535.25390625 131.4140625 Q 535.25390625 130.134765625 534.70703125 129.4951171875 Q 534.16015625 128.85546875 532.998046875 128.85546875 Q 531.474609375 128.85546875 530.7666015625 129.7685546875 Q 530.05859375 130.681640625 530.05859375 132.76171875 L 530.05859375 138.376953125 L 528.4375 138.376953125 L 528.4375 127.673828125 L 529.755859375 127.673828125 L 530.01953125 129.138671875 L 530.09765625 129.138671875 Q 530.556640625 128.357421875 531.3916015625 127.91796875 Q 532.2265625 127.478515625 533.26171875 127.478515625 Q 535.771484375 127.478515625 536.54296875 129.294921875 L 536.62109375 129.294921875 Q 537.099609375 128.455078125 538.0078125 127.966796875 Q 538.916015625 127.478515625 540.078125 127.478515625 Q 541.89453125 127.478515625 542.7978515625 128.4111328125 Q 543.701171875 129.34375 543.701171875 131.39453125 L 543.701171875 138.376953125 L 542.080078125 138.376953125 Z  M 548.662109375 138.376953125 L 547.041015625 138.376953125 L 547.041015625 127.673828125 L 548.662109375 127.673828125 L 548.662109375 138.376953125 Z  M 546.904296875 124.7734375 Q 546.904296875 124.216796875 547.177734375 123.9580078125 Q 547.451171875 123.69921875 547.861328125 123.69921875 Q 548.251953125 123.69921875 548.53515625 123.962890625 Q 548.818359375 124.2265625 548.818359375 124.7734375 Q 548.818359375 125.3203125 548.53515625 125.5888671875 Q 548.251953125 125.857421875 547.861328125 125.857421875 Q 547.451171875 125.857421875 547.177734375 125.5888671875 Q 546.904296875 125.3203125 546.904296875 124.7734375 Z  M 559.423828125 138.376953125 L 559.423828125 131.453125 Q 559.423828125 130.14453125 558.828125 129.5 Q 558.232421875 128.85546875 556.962890625 128.85546875 Q 555.283203125 128.85546875 554.501953125 129.763671875 Q 553.720703125 130.671875 553.720703125 132.76171875 L 553.720703125 138.376953125 L 552.099609375 138.376953125 L 552.099609375 127.673828125 L 553.41796875 127.673828125 L 553.681640625 129.138671875 L 553.759765625 129.138671875 Q 554.2578125 128.34765625 555.15625 127.9130859375 Q 556.0546875 127.478515625 557.158203125 127.478515625 Q 559.091796875 127.478515625 560.068359375 128.4111328125 Q 561.044921875 129.34375 561.044921875 131.39453125 L 561.044921875 138.376953125 L 559.423828125 138.376953125 Z  M 573.134765625 127.673828125 L 573.134765625 128.69921875 L 571.15234375 128.93359375 Q 571.42578125 129.275390625 571.640625 129.8271484375 Q 571.85546875 130.37890625 571.85546875 131.072265625 Q 571.85546875 132.64453125 570.78125 133.58203125 Q 569.70703125 134.51953125 567.83203125 134.51953125 Q 567.353515625 134.51953125 566.93359375 134.44140625 Q 565.8984375 134.98828125 565.8984375 135.818359375 Q 565.8984375 136.2578125 566.259765625 136.4677734375 Q 566.62109375 136.677734375 567.5 136.677734375 L 569.39453125 136.677734375 Q 571.1328125 136.677734375 572.0654296875 137.41015625 Q 572.998046875 138.142578125 572.998046875 139.5390625 Q 572.998046875 141.31640625 571.572265625 142.2490234375 Q 570.146484375 143.181640625 567.412109375 143.181640625 Q 565.3125 143.181640625 564.1748046875 142.400390625 Q 563.037109375 141.619140625 563.037109375 140.193359375 Q 563.037109375 139.216796875 563.662109375 138.50390625 Q 564.287109375 137.791015625 565.419921875 137.537109375 Q 565.009765625 137.3515625 564.7314453125 136.9609375 Q 564.453125 136.5703125 564.453125 136.052734375 Q 564.453125 135.466796875 564.765625 135.02734375 Q 565.078125 134.587890625 565.751953125 134.177734375 Q 564.921875 133.8359375 564.3994140625 133.015625 Q 563.876953125 132.1953125 563.876953125 131.140625 Q 563.876953125 129.3828125 564.931640625 128.4306640625 Q 565.986328125 127.478515625 567.919921875 127.478515625 Q 568.759765625 127.478515625 569.43359375 127.673828125 L 573.134765625 127.673828125 Z  M 564.599609375 140.173828125 Q 564.599609375 141.04296875 565.33203125 141.4921875 Q 566.064453125 141.94140625 567.431640625 141.94140625 Q 569.47265625 141.94140625 570.4541015625 141.3310546875 Q 571.435546875 140.720703125 571.435546875 139.67578125 Q 571.435546875 138.806640625 570.8984375 138.4697265625 Q 570.361328125 138.1328125 568.876953125 138.1328125 L 566.93359375 138.1328125 Q 565.830078125 138.1328125 565.21484375 138.66015625 Q 564.599609375 139.1875 564.599609375 140.173828125 Z  M 565.478515625 131.1015625 Q 565.478515625 132.224609375 566.11328125 132.80078125 Q 566.748046875 133.376953125 567.880859375 133.376953125 Q 570.25390625 133.376953125 570.25390625 131.072265625 Q 570.25390625 128.66015625 567.8515625 128.66015625 Q 566.708984375 128.66015625 566.09375 129.275390625 Q 565.478515625 129.890625 565.478515625 131.1015625 Z " fill-rule="evenodd" fill="rgb(255,255,255)" stroke-width="1" stroke="rgba(0,0,0,0)" stroke-linejoin="miter" stroke-linecap="square"/><rect x="0" y="100" width="150" height="60" transform="matrix(1,0,0,1,0,0)" fill="rgb(140,232,140)" stroke-width="1" stroke="rgba(0,0,0,0)" stroke-linejoin="miter" stroke-linecap="square"/><path d=" M 61.5419921875 129.7900390625 Q 61.5419921875 142.3583984375 51.8154296875 142.3583984375 Q 50.1162109375 142.3583984375 49.1201171875 142.0654296875 L 49.1201171875 139.970703125 Q 50.2919921875 140.3515625 51.7861328125 140.3515625 Q 55.3017578125 140.3515625 57.09619140625 138.17626953125 Q 58.890625 136.0009765625 59.0517578125 131.50390625 L 58.8759765625 131.50390625 Q 58.0703125 132.7197265625 56.7373046875 133.35693359375 Q 55.404296875 133.994140625 53.734375 133.994140625 Q 50.892578125 133.994140625 49.22265625 132.294921875 Q 47.552734375 130.595703125 47.552734375 127.548828125 Q 47.552734375 124.208984375 49.42041015625 122.275390625 Q 51.2880859375 120.341796875 54.3349609375 120.341796875 Q 56.517578125 120.341796875 58.15087890625 121.46240234375 Q 59.7841796875 122.5830078125 60.6630859375 124.72900390625 Q 61.5419921875 126.875 61.5419921875 129.7900390625 Z  M 54.3349609375 122.421875 Q 52.240234375 122.421875 51.09765625 123.76953125 Q 49.955078125 125.1171875 49.955078125 127.51953125 Q 49.955078125 129.62890625 51.009765625 130.83740234375 Q 52.064453125 132.0458984375 54.2177734375 132.0458984375 Q 55.55078125 132.0458984375 56.67138671875 131.50390625 Q 57.7919921875 130.9619140625 58.4365234375 130.0244140625 Q 59.0810546875 129.0869140625 59.0810546875 128.0615234375 Q 59.0810546875 126.5234375 58.48046875 125.2197265625 Q 57.8798828125 123.916015625 56.80322265625 123.1689453125 Q 55.7265625 122.421875 54.3349609375 122.421875 Z  M 78.6953125 142.0654296875 L 64.6181640625 142.0654296875 L 64.6181640625 139.970703125 L 70.2578125 134.3017578125 Q 72.8359375 131.6943359375 73.65625 130.5810546875 Q 74.4765625 129.4677734375 74.88671875 128.4130859375 Q 75.296875 127.3583984375 75.296875 126.142578125 Q 75.296875 124.4287109375 74.2568359375 123.42529296875 Q 73.216796875 122.421875 71.37109375 122.421875 Q 70.0380859375 122.421875 68.84423828125 122.861328125 Q 67.650390625 123.30078125 66.185546875 124.4580078125 L 64.896484375 122.802734375 Q 67.85546875 120.341796875 71.341796875 120.341796875 Q 74.359375 120.341796875 76.0732421875 121.88720703125 Q 77.787109375 123.4326171875 77.787109375 126.0400390625 Q 77.787109375 128.076171875 76.64453125 130.068359375 Q 75.501953125 132.060546875 72.3671875 135.107421875 L 67.6796875 139.6923828125 L 67.6796875 139.8095703125 L 78.6953125 139.8095703125 L 78.6953125 142.0654296875 Z  M 83.8515625 127.0361328125 Q 83.8515625 129.5263671875 84.3935546875 130.771484375 Q 84.935546875 132.0166015625 86.1513671875 132.0166015625 Q 88.5537109375 132.0166015625 88.5537109375 127.0361328125 Q 88.5537109375 122.0849609375 86.1513671875 122.0849609375 Q 84.935546875 122.0849609375 84.3935546875 123.3154296875 Q 83.8515625 124.5458984375 83.8515625 127.0361328125 Z  M 90.560546875 127.0361328125 Q 90.560546875 130.3759765625 89.43994140625 132.08251953125 Q 88.3193359375 133.7890625 86.1513671875 133.7890625 Q 84.1005859375 133.7890625 82.96533203125 132.0458984375 Q 81.830078125 130.302734375 81.830078125 127.0361328125 Q 81.830078125 123.7109375 82.92138671875 122.0263671875 Q 84.0126953125 120.341796875 86.1513671875 120.341796875 Q 88.275390625 120.341796875 89.41796875 122.0849609375 Q 90.560546875 123.828125 90.560546875 127.0361328125 Z  M 96.7421875 135.6201171875 Q 96.7421875 138.125 97.2841796875 139.36279296875 Q 97.826171875 140.6005859375 99.056640625 140.6005859375 Q 100.287109375 140.6005859375 100.873046875 139.37744140625 Q 101.458984375 138.154296875 101.458984375 135.6201171875 Q 101.458984375 133.115234375 100.873046875 131.90673828125 Q 100.287109375 130.6982421875 99.056640625 130.6982421875 Q 97.826171875 130.6982421875 97.2841796875 131.90673828125 Q 96.7421875 133.115234375 96.7421875 135.6201171875 Z  M 103.4658203125 135.6201171875 Q 103.4658203125 138.9453125 102.34521484375 140.65185546875 Q 101.224609375 142.3583984375 99.056640625 142.3583984375 Q 96.9765625 142.3583984375 95.85595703125 140.615234375 Q 94.7353515625 138.8720703125 94.7353515625 135.6201171875 Q 94.7353515625 132.294921875 95.82666015625 130.6103515625 Q 96.91796875 128.92578125 99.056640625 128.92578125 Q 101.13671875 128.92578125 102.30126953125 130.64697265625 Q 103.4658203125 132.3681640625 103.4658203125 135.6201171875 Z  M 99.6865234375 120.6494140625 L 87.806640625 142.0654296875 L 85.6533203125 142.0654296875 L 97.533203125 120.6494140625 L 99.6865234375 120.6494140625 Z " fill-rule="evenodd" fill="rgb(0,0,0)" stroke-width="1" stroke="rgba(0,0,0,0)" stroke-linejoin="miter" stroke-linecap="square"/></svg>