<?xml version="1.0" standalone="no"?>
<!DOCTYPE svg PUBLIC "-//W3C//DTD SVG 20010904//EN"
 "http://www.w3.org/TR/2001/REC-SVG-20010904/DTD/svg10.dtd">
<svg version="1.0" xmlns="http://www.w3.org/2000/svg"
 width="700.000000pt" height="700.000000pt" viewBox="0 0 700.000000 700.000000"
 preserveAspectRatio="xMidYMid meet">
<metadata>
Created by potrace 1.11, written by Peter Selinger 2001-2013
</metadata>
<g transform="translate(0.000000,700.000000) scale(0.100000,-0.100000)"
fill="#000000" stroke="none">
<path d="M790 6979 c-259 -55 -467 -191 -612 -399 -125 -178 -179 -364 -173
-585 4 -125 4 -128 30 -226 72 -283 291 -535 563 -650 101 -42 222 -72 300
-73 17 0 24 -8 32 -35 10 -38 56 -236 64 -274 6 -29 11 -49 30 -127 48 -201
85 -358 90 -380 2 -14 41 -180 86 -370 45 -190 83 -352 85 -360 2 -8 11 -46
20 -85 9 -38 18 -77 20 -85 2 -8 8 -33 13 -55 6 -22 13 -51 16 -65 3 -14 24
-104 46 -200 23 -96 43 -182 45 -190 7 -30 77 -327 90 -378 13 -52 13 -53 -10
-62 -35 -13 -154 -91 -220 -145 -238 -191 -410 -495 -452 -795 -10 -71 -9
-289 1 -360 63 -449 371 -832 804 -1000 49 -19 70 -25 170 -49 133 -33 359
-36 516 -7 463 86 857 460 975 926 30 116 33 145 36 289 3 201 -37 403 -106
533 -6 13 -4 20 10 28 11 5 25 16 33 23 15 14 149 118 248 192 36 27 67 52 70
55 9 10 810 625 819 628 4 1 21 -9 37 -23 104 -90 310 -214 415 -250 24 -8 53
-19 64 -25 37 -17 199 -60 275 -71 116 -18 342 -19 449 -3 172 26 332 75 466
141 70 35 185 102 195 112 3 4 32 26 65 50 212 157 418 433 505 677 31 89 69
226 75 275 3 24 9 71 14 104 11 76 6 308 -8 403 -13 85 -51 225 -85 315 -201
525 -681 901 -1246 974 -72 10 -321 9 -385 0 -27 -5 -66 -10 -85 -13 -277 -41
-620 -227 -831 -449 -208 -220 -364 -528 -404 -800 -4 -22 -9 -49 -12 -60 -9
-31 -12 -328 -3 -377 4 -23 11 -62 14 -85 14 -109 60 -256 118 -383 28 -61 29
-65 11 -77 -10 -7 -22 -16 -28 -21 -5 -4 -35 -26 -65 -49 -55 -41 -471 -362
-500 -386 -9 -6 -54 -41 -100 -77 -47 -36 -92 -70 -100 -77 -8 -7 -80 -62
-160 -123 -80 -61 -161 -124 -180 -140 -32 -26 -37 -27 -55 -15 -82 59 -190
126 -245 152 -152 74 -339 118 -517 122 -32 1 -32 1 -49 76 -1 6 -13 57 -27
115 -34 139 -76 320 -81 345 -3 11 -18 79 -36 150 -17 72 -37 158 -45 193 -8
34 -22 92 -31 129 -9 37 -17 74 -19 82 -2 9 -20 86 -40 171 -20 85 -38 162
-40 170 -2 8 -29 123 -60 255 -31 132 -58 247 -60 255 -2 8 -11 47 -20 85 -9
39 -18 77 -20 85 -2 8 -12 53 -24 100 -11 47 -34 144 -51 215 -17 72 -36 151
-42 177 -6 26 -10 49 -7 51 2 1 29 19 59 38 196 127 345 345 405 594 23 91 27
268 10 375 -64 387 -348 693 -738 792 -114 29 -301 32 -417 7z"/>
</g>
</svg>
