<?xml version="1.0" ?><svg enable-background="new 0 0 97.8 97.8" height="100%" id="svg2" version="1.1" viewBox="0 0 97.8 97.8" width="100%" xml:space="preserve" preserveAspectRatio="none" xmlns="http://www.w3.org/2000/svg" xmlns:cc="http://creativecommons.org/ns#" xmlns:dc="http://purl.org/dc/elements/1.1/" xmlns:inkscape="http://www.inkscape.org/namespaces/inkscape" xmlns:rdf="http://www.w3.org/1999/02/22-rdf-syntax-ns#" xmlns:sodipodi="http://sodipodi.sourceforge.net/DTD/sodipodi-0.dtd" xmlns:svg="http://www.w3.org/2000/svg"><defs id="defs12"/><path d="m 74.640112,7.5983635 -10.289751,0 c 0,10.8048645 -5.333585,16.1956865 -10.509618,21.4149945 -1.262344,1.270788 -2.564045,2.561565 -3.73773,3.913623 -1.17474,-1.352058 -2.432469,-2.642835 -3.693756,-3.913623 C 41.232167,23.79405 35.899639,18.403228 35.899639,7.5983635 l -10.289751,0 c 0,15.0425835 7.797089,22.9224895 13.499802,28.6705885 3.382787,3.410229 5.44948,5.577323 5.848448,7.915193 -0.01266,0.259646 -0.04292,0.524485 -0.04397,0.791519 0,0.0073 0,0.03553 0,0.04397 l 0,24.756965 -10.685511,-4.221437 c -0.358862,-0.140377 -0.780238,-0.0014 -1.011386,0.307813 -0.116104,0.151989 -0.175893,0.302165 -0.175893,0.483707 0,0.183652 0.05768,0.37358 0.175893,0.527679 L 49.399441,87.8936 c 0.162542,0.211094 0.393619,0.351787 0.659599,0.351787 0.265979,0 0.497057,-0.140687 0.659599,-0.351787 L 66.900812,66.874365 c 0.235369,-0.306086 0.232203,-0.704244 0,-1.011386 -0.231149,-0.309249 -0.652526,-0.449246 -1.011386,-0.307813 l -10.68551,4.221437 0,-24.712992 0.131919,0 c 0,-0.287089 -0.0292,-0.60082 -0.04397,-0.879466 0.400023,-2.33787 2.466718,-4.506019 5.848448,-7.915193 5.703772,-5.748099 13.499802,-13.628005 13.499802,-28.6705885 z" id="path3046"/></svg>