<svg version="1.1" xmlns="http://www.w3.org/2000/svg" width="268.86px" height="97.154px" viewBox="0 0 268.86 97.154">
	<path fill="#0ED0FF" d="M34.999,2.434c4.72-1.85,10.59,2.5,9.69,7.63c0.21,5.56-7.34,9.01-11.58,5.51
		C28.199,12.474,29.409,4.044,34.999,2.434z"/>

	<path fill="#0ED0FF" d="M192.999,2.264c4.601-1.36,9.96,2.76,9.21,7.67c0.29,5.82-7.67,9.27-11.891,5.4
		C185.499,11.944,187.27,3.554,192.999,2.264z"/>

	<path fill="#0ED0FF" d="M4.059,3.914c3.94-0.05,7.88-0.05,11.81-0.02c0,24.68,0.03,49.36-0.01,74.041
		c-3.92,0.01-7.85,0.109-11.77-0.101C4.049,53.194,4.109,28.554,4.059,3.914z"/>

	<path fill="#0ED0FF" d="M31.369,24.684c3.93-0.04,7.87-0.04,11.8,0.02c-0.04,17.74,0.03,35.49-0.03,53.24
		c-3.89,0.02-7.78,0.02-11.67-0.01C31.239,60.185,31.439,42.434,31.369,24.684z"/>

	<path fill="#0ED0FF" d="M124.419,24.734c3.92-0.11,7.83-0.1,11.75-0.03c-0.02,10.09-0.02,20.18-0.01,30.27
		c0.06,4.461,1.47,9.601,5.739,11.791c7.94,4.22,19.09-1.591,19.69-10.701c0.57-10.439,0.12-20.919,0.229-31.379
		c3.881-0.03,7.761-0.04,11.641,0.01c-0.04,17.74,0.01,35.49-0.02,53.229c-3.871,0.04-7.73,0.04-11.59,0.011
		c-0.011-1.65,0-3.301,0-4.94c-3.15,2.521-6.66,4.91-10.721,5.56c-6.37,0.541-13.4,0.711-18.83-3.199c-5.76-3.69-8-10.91-7.93-17.44
		C124.409,46.854,124.309,35.794,124.419,24.734z"/>

	<path fill="#0ED0FF" d="M188.818,24.674c3.94-0.02,7.881-0.02,11.82,0c-0.01,17.75,0.03,35.5-0.01,53.261
		c-3.92,0.029-7.83,0.06-11.73-0.051C188.759,60.154,188.909,42.414,188.818,24.674z"/>

	<path fill="#0ED0FF" d="M109.649,24.674c-3.95-0.02-7.89-0.02-11.84,0.01c0.01,2.75,0.03,5.5,0.09,8.26
		c-2.63-3.48-5.88-6.71-10.14-8.04c-11.92-3.92-26.12,2.75-30.64,14.48c-3.44,9.18-2.8,20.21,2.7,28.48
		c5.53,8.18,16.18,12.88,25.89,10.3c4.76-1.08,8.77-4.04,12.18-7.41c-0.12,8.8,0.01,17.601-0.07,26.4c3.92-0.03,7.85,0.06,11.78-0.11
		C109.709,72.924,109.609,48.804,109.649,24.674z M89.309,66.614c-8.24,4.56-19.19-1.01-21.68-9.74
		c-3.24-9.28,2.67-20.56,12.44-22.53c5.18-0.9,10.66,1.33,13.94,5.39C100.709,47.684,98.969,61.804,89.309,66.614z"/>
		
	<path fill="#0ED0FF" d="M259.819,30.714c-6.58-6.13-16.13-7.86-24.79-6.44c-9.551,1.56-17.86,8.67-20.92,17.84
		c-1.62,4.56-1.511,9.52-1.04,14.279c1.649,10.16,9.67,18.98,19.68,21.431c9.44,2.47,20.34,0.58,27.51-6.31
		C271.889,61.204,271.709,40.744,259.819,30.714z M251.289,64.444c-6.87,6.029-18.88,4.63-23.88-3.141
		c-5.97-8.539-2.641-22.47,7.63-25.93c5.43-1.91,11.92-1,16.32,2.84C259.009,44.644,259.009,58.054,251.289,64.444z"/>
</svg>
