<svg width="68" height="74" xmlns="http://www.w3.org/2000/svg" preserveAspectRatio="none">

 <g>
  <title>background</title>
  <rect fill="none" id="canvas_background" height="76" width="70" y="-1" x="-1"/>
 </g>
 <g>
  <title>Layer 1</title>
  <path transform="rotate(90 33.667510986328125,33.257003784179695) " id="path3" d="m-6,26.9731l0,2.99299l0,6.58288l0,2.99299c18.175,0 23.79391,3.84738 29.74477,7.92031c5.7168,3.91334 11.6283,7.95968 26.11447,7.95968l0,-0.08937c0.68627,0.05958 1.18528,0.08831 1.18528,0.08831l5.07627,0.0149l-3.94419,9.98444c-0.133,0.33515 -0.02447,0.71819 0.26174,0.93311c0.14364,0.10853 0.31175,0.16067 0.48198,0.16067c0.17237,0 0.34261,-0.05426 0.48731,-0.16492l19.61457,-15.08094c0.19684,-0.15109 0.31282,-0.38516 0.31282,-0.63414c0,-0.24897 -0.11598,-0.48198 -0.31282,-0.63413l-19.61564,-15.08093c-0.28621,-0.22025 -0.68307,-0.22131 -0.96929,-0.0032c-0.28727,0.21598 -0.39474,0.59796 -0.26174,0.93205l3.9442,9.9855l-7.07019,0c-10.89202,-0.13087 -14.89154,-2.84722 -19.89653,-6.27326c-3.17919,-2.17585 -6.56905,-4.49215 -11.6102,-6.30305c5.04115,-1.81197 8.43101,-4.1272 11.6102,-6.30305c5.00499,-3.42603 9.00451,-6.14239 19.89653,-6.27326l7.07019,0l-3.9442,9.98551c-0.133,0.33409 -0.02447,0.71606 0.26174,0.93205c0.28728,0.21705 0.68415,0.21599 0.96929,-0.0032l19.61564,-15.08092c0.19684,-0.15215 0.31282,-0.38516 0.31282,-0.63414c0,-0.24897 -0.11598,-0.48305 -0.31282,-0.63413l-19.61564,-15.08094c-0.1447,-0.11065 -0.31494,-0.16491 -0.4873,-0.16491c-0.17024,0 -0.33835,0.0532 -0.48199,0.16066c-0.28727,0.21599 -0.39474,0.59902 -0.26174,0.93311l3.9442,9.98444l-5.07628,0.01491c0,0 -0.50007,0.02766 -1.18528,0.08831l0,-0.08937c-14.48616,0 -20.39767,4.04633 -26.11446,7.95968c-5.9498,4.074 -11.56871,7.92137 -29.74371,7.92137l0,-0.00001z"/>
 </g>
</svg>